<svg xmlns="http://www.w3.org/2000/svg" height="228.3" width="259.7"><path fill="#fff" d="M0 0h110v40H0z"/><path fill="#fefefe" d="M.1 60.5h9.2c6.7 0 10.8 3.4 10.8 9 0 3.6-1.8 6.4-4.8 7.8l9.5 13.4h-7.3l-8-12.2H6.2v12.2H.1zm6.1 5.2v7.5h3.5c2.6 0 4.1-1.4 4.1-3.8 0-2.3-1.5-3.7-4.1-3.7zm22.4-5.2h17.6v5.2H34.7v7h9.8v5.2h-9.8v7.6h11.5v5.2H28.6zm6-2.6l4.9-5.8h6.3l-5.6 5.8zm18.8 2.6h10c6.7 0 10.7 3.4 10.7 9s-4.1 9-10.7 9h-3.8v12.2h-6.1zm6.1 5.2v7.5h4.1c2.6 0 4.1-1.4 4.1-3.8 0-2.3-1.6-3.7-4.1-3.7zM97 60.5h6.1v18.4c0 8-4.7 12.7-12.3 12.7-7.6 0-12.2-4.8-12.2-12.7V60.5h6.1v18.9c0 4.1 2.3 6.4 6.1 6.4s6.1-2.4 6.1-6.4V60.5zm13.7 0h8.6c6.3 0 10.1 3.1 10.1 8.2 0 2.4-1.1 4.5-3.2 6 3.2 1.4 5 4 5 7.2 0 5.5-4.3 8.9-11.2 8.9h-9.2V60.5zm6.1 5.2v6.6h2.6c2.3 0 3.7-1.2 3.7-3.3 0-2-1.3-3.3-3.7-3.3zm0 11.9v7.9h3.5c2.9 0 4.6-1.5 4.6-4s-1.7-3.9-4.6-3.9zm20.7-17.1h6.1v24.7h11.5v5.6h-17.6zm23 0h6.1v30.3h-6.1zm46.3 32.3c.6 0 1.5-.1 2.2-.3v5.2c-1 .4-1.9.6-3.2.6-3.4 0-6.5-1.4-9.5-4l-3.6-3.2c-1.3.3-2.7.5-4.1.5-9.6 0-16.1-7.3-16.1-16 0-8.6 6.5-16 16.1-16 9.5 0 16 7.3 16 16 0 5.1-2.2 9.7-6 12.6l1.8 1.7c2.4 2.1 4.5 2.9 6.4 2.9zm-8.5-17.2c0-5.8-4.1-10.2-9.7-10.2-5.7 0-9.8 4.5-9.8 10.2 0 5.8 4.1 10.2 9.8 10.2 5.6 0 9.7-4.4 9.7-10.2zm30.1-15.1h6.1v18.4c0 8-4.7 12.7-12.3 12.7-7.6 0-12.2-4.8-12.2-12.7V60.5h6.1v18.9c0 4.1 2.3 6.4 6.1 6.4s6.1-2.4 6.1-6.4zm13.7 0h17.6v5.2h-11.5v7h9.8v5.2h-9.8v7.6h11.5v5.2h-17.6zM.1 104.1h17.6v5.2H6.2v7H16v5.2H6.2v12.8H.1zm23 0h9.2c6.7 0 10.8 3.4 10.8 9 0 3.6-1.8 6.4-4.8 7.8l9.5 13.4h-7.3l-8-12.2h-3.2v12.2h-6.1zm6.2 5.2v7.6h3.5c2.6 0 4.1-1.4 4.1-3.8 0-2.3-1.5-3.7-4.1-3.7zm31.3-5.2h8l11.5 30.3h-6.5l-2.9-7.9H58.5l-2.9 7.9h-6.5zm8.1 17.1l-4.1-11.4-4.2 11.4zm16-17.1h7.9l13.5 21.7v-21.7h6.1v30.3h-7.9l-13.5-21.7v21.7h-6.1zm57.4 21.2l4.8 3.7c-2.3 3.2-6 5.4-10.4 6l-3.8 6.3h-5.4l3.8-6.4c-7.9-1.4-13.1-8-13.1-15.7 0-8.6 6.5-16 16.1-16 5.5 0 10 2.5 12.7 6.1l-4.8 3.8c-1.7-2.5-4.5-4.1-7.9-4.1-5.7 0-9.8 4.5-9.8 10.2 0 5.8 4.1 10.2 9.8 10.2 3.6 0 6.3-1.6 8-4.1zm17.6-21.2h8l11.5 30.3h-6.5l-2.9-7.9h-12.1l-2.9 7.9h-6.5zm8.2 17.1l-4.1-11.4-4.1 11.4zm16-17.1h6.1v30.3h-6.1zm16.3 21.9c1.8 2.3 4.2 3.7 6.7 3.7 2.4 0 3.9-1.3 3.9-3.5 0-5.4-13.8-4.2-13.8-14.3 0-4.8 3.9-8.8 9.7-8.8 4.5 0 8 2 10.6 5.1l-4.5 4c-1.8-2.3-3.8-3.8-6.1-3.8-2.1 0-3.5 1.4-3.5 3.2 0 5.4 13.8 4.1 13.8 14.4-.1 5.6-4.5 9.1-10 9.1-5.1 0-8.6-1.9-11.2-5.1zm23.3-21.9h17.6v5.2h-11.5v7h9.8v5.2h-9.8v7.6h11.5v5.2h-17.6zm-125 113.8c.8 0 1.5.6 1.2 2.2l-3.8.9c.7-1.8 1.8-3.1 2.6-3.1m2.2 6.1h-.8c-1 1.1-2 2-3 2s-1.6-.6-1.6-2c0-.6.1-1.2.2-1.7l6.1-2c1.2-2.8-.2-4.1-1.9-4.1-2.9 0-6.2 4.9-6.2 9.1 0 1.9.9 3 2.3 3 1.7 0 3.4-1.6 4.9-4.3m-1.3-8.9l4.3-4v-.5h-2.3l-2.7 4.5zm-13.2 2.8h2l-3.2 8.9c-.3.8.1 1.5.9 1.5 1.8 0 4.8-1.8 5.9-4.3h-.6c-.8.9-2.4 2-3.7 2.3l3-8.3h3l.4-1.3h-3l1.1-3.2h-1.2l-2.1 3.2-2.5.4zm-2.8-.4c.2-.8-.3-1.3-.7-1.3-1.8 0-3.9 1.6-4.7 3.8h.6c.6-.8 1.6-1.7 2.5-1.9l-3.4 8.8c-.3.8.3 1.3.7 1.3 1.7 0 3.7-1.6 4.5-3.8h-.6c-.6.8-1.6 1.7-2.5 1.9zm.6-4.4c.8 0 1.5-.6 1.5-1.5 0-.8-.7-1.5-1.5-1.5s-1.5.7-1.5 1.5c.1.8.7 1.5 1.5 1.5m-19.5 13.6c-.4 1 0 1.6 1 1.6.6 0 .9-.2 1.1-.8l2.4-6.2c1.1-1.3 3.3-2.8 4.2-2.8.6 0 .6.5.1 1.3l-3.6 6.9c-.4.7.1 1.5.9 1.5 1.8 0 3.9-1.6 4.7-3.8h-.6c-.6.8-1.6 1.7-2.5 1.9l3.1-6.3c.4-.8.6-1.6.6-2.2 0-1-.6-1.7-1.6-1.7-1.5 0-3.1 1.7-4.9 3.9v-1.6c0-1.2-.4-2.2-1.4-2.2-.7 0-1.3.6-1.9 1.4v.2c1.2-.1 1.7 1.7.8 3.5zm0-7.8c.4-1.4.2-2.7-.9-2.7-1.3 0-1.6 1-3 3.9v-1.6c0-1.2-.4-2.2-1.4-2.2-1.2 0-2.4 1.9-3.2 3.8h.6c.6-.9 1.2-1.4 1.6-1.4.5 0 .8.8 0 2.6l-2.4 5.3c-.4 1 0 1.6 1 1.6.6 0 .9-.2 1.1-.8l2.4-6.2c.7-.8 1.3-1.5 2-2.3zm-13.7-1c.8 0 1.5.6 1.2 2.2l-3.8.9c.6-1.8 1.8-3.1 2.6-3.1m2.1 6.1h-.8c-1 1.1-2 2-3 2s-1.6-.6-1.6-2c0-.6.1-1.2.2-1.7l6.1-2c1.2-2.8-.2-4.1-1.9-4.1-2.9 0-6.2 4.9-6.2 9.1 0 1.9.9 3 2.3 3 1.8 0 3.5-1.6 4.9-4.3m-14.4-6.1h2l-3.2 8.9c-.3.8.1 1.5.9 1.5 1.8 0 4.8-1.8 5.9-4.3h-.6c-.8.9-2.4 2-3.7 2.3l3-8.3h3l.4-1.3h-3l1.1-3.2h-1.2l-2.1 3.2-2.5.4zm-11.2 6.9c0-2.7 3-6.4 4.7-6.4.4 0 .7 0 1 .1l-1.8 4.7c-1 1.2-2.6 2.8-3.3 2.8-.4 0-.6-.3-.6-1.2m9.3-9.1l-.9-.1-1 1h-.2c-5.1 0-9.4 5.7-9.4 9.8 0 1.2.7 1.8 1.8 1.8 1.3 0 2.6-1.9 4-3.9l-.1.7c-.2 2 .4 3.1 1.5 3.1 1.2 0 2.4-1.9 3.2-3.8h-.6c-.6.9-1.2 1.4-1.6 1.4-.5 0-.8-.8 0-2.6zm-10.8 3.2c.4-1.4.2-2.7-.9-2.7-1.3 0-1.6 1-3 3.9v-1.6c0-1.2-.4-2.2-1.4-2.2-1.2 0-2.4 1.9-3.2 3.8h.6c.6-.9 1.2-1.4 1.6-1.4.5 0 .8.8 0 2.6l-2.4 5.3c-.4 1 0 1.6 1 1.6.6 0 .9-.2 1.1-.8l2.4-6.2c.7-.8 1.3-1.5 2-2.3zm-17 9l.2-.7c-3-.6-3.3-.6-2.2-3.8l1.2-3.3h3.3c1.5 0 1.5.6 1.3 2.2h.8l2-5.3h-.8c-.7 1.3-1.3 2.2-2.9 2.2H8.4l1.7-4.7c.5-1.5.8-1.8 2.8-1.8h1.4c2.1 0 2.3.6 2.3 2.6h.8l.7-3.6H6l-.2.7c2.4.5 2.6.7 1.5 3.8l-2.7 7.3c-1.1 3-1.6 3.3-4.3 3.8l-.2.7zm60-37.8c.8 0 1.5.6 1.2 2.2l-3.8.9c.7-1.7 1.8-3.1 2.6-3.1m2.2 6.2h-.8c-1 1.1-2 2-3 2s-1.6-.6-1.6-2c0-.6.1-1.2.2-1.7l6.1-2c1.2-2.8-.2-4.1-1.9-4.1-2.9 0-6.2 4.9-6.2 9.1 0 1.9.9 3 2.3 3 1.7 0 3.4-1.7 4.9-4.3m-1.3-8.9l4.3-4v-.5h-2.3l-2.7 4.5zm-13.2 2.8h2l-3.2 8.9c-.3.8.1 1.5.9 1.5 1.8 0 4.8-1.8 5.9-4.3h-.6c-.8.9-2.4 2-3.7 2.3l3-8.3h3l.4-1.3h-3l1.1-3.2h-1.2L59 189l-2.5.4zm-2.8-.4c.2-.8-.3-1.3-.7-1.3-1.8 0-3.9 1.6-4.7 3.8h.6c.6-.8 1.6-1.7 2.5-1.9l-3.4 8.8c-.3.8.3 1.3.7 1.3 1.7 0 3.7-1.6 4.5-3.8h-.6c-.6.8-1.6 1.7-2.5 1.9zm.6-4.4c.8 0 1.5-.6 1.5-1.5 0-.8-.7-1.5-1.5-1.5s-1.5.7-1.5 1.5c.1.8.7 1.5 1.5 1.5m-11.8 13.2l6.2-16.2-.2-.2-3.9.4v.5l.8.6c.7.5.5 1-.2 2.7l-4.8 12.7c-.4.7.1 1.5.9 1.5 1.8 0 3.7-1.6 4.5-3.8h-.6c-.6.8-1.7 1.7-2.7 1.8m-11.7-1.5c0-2.7 3-6.4 4.7-6.4.4 0 .7 0 1 .1l-1.8 4.7c-1 1.2-2.6 2.8-3.3 2.8-.3 0-.6-.4-.6-1.2m9.3-9.1l-.9-.1-1 1H38c-5.1 0-9.4 5.7-9.4 9.8 0 1.2.7 1.8 1.8 1.8 1.3 0 2.6-1.9 4-3.9l-.1.7c-.2 2 .4 3.1 1.5 3.1 1.2 0 2.4-1.9 3.2-3.8h-.6c-.6.9-1.2 1.4-1.6 1.4-.5 0-.8-.8 0-2.6zm-22.6 14.7c0-1.2 1.1-1.9 2.8-2.6.5.3 1.3.6 2.4.9 1.7.6 2.3.8 2.3 1.3 0 1.1-1.8 1.9-4.3 1.9-2.1.1-3.2-.4-3.2-1.5m4.6-7.1c-.7 0-1-.6-1-1.3 0-2 1.1-4.9 2.7-4.9.7 0 1 .6 1 1.3.1 1.9-1 4.9-2.7 4.9m4.8 6c0-1.4-1.3-1.9-3.3-2.6-1.8-.5-2.6-.7-2.6-1.3 0-.5.4-1 1.1-1.4 2.9-.2 4.8-2.8 4.8-5 0-.5-.1-.9-.2-1.2h2.5l.4-1.3h-3.9c-.5-.3-1-.4-1.6-.4-3.1 0-5.1 2.7-5.1 4.9 0 1.7 1.1 2.7 2.4 3-1.4.6-2.2 1.4-2.2 2.3 0 .5.2.9.6 1.2-3.3 1-4.6 2.1-4.6 3.7 0 1.5 2 2.2 4.4 2.2 4 0 7.3-2.2 7.3-4.1m-15.5-9.5c1.5 0 1.5.6 1.3 2.2h.8l2-5.3h-.8c-.7 1.3-1.3 2.2-2.9 2.2H8.5l1.6-4.5c.5-1.5.8-1.8 2.8-1.8h1.4c2.1 0 2.3.6 2.3 2.6h.8l.7-3.6H6l-.2.7c2.4.5 2.6.7 1.5 3.8l-2.7 7.3c-1.1 3-1.6 3.3-4.3 3.8l-.2.7h13.6l2.4-3.9h-.9c-1.6 1.5-3.5 2.9-6.2 2.9-3.6 0-3.3-.2-2.1-3.5l1.3-3.5zm1.8-9.3l4.3-3v-.5h-2.6l-2.4 3.4h.7zm54.2-20.4c.8 0 1.5.6 1.2 2.2l-3.8.9c.6-1.8 1.7-3.1 2.6-3.1m2.1 6.2h-.8c-1 1.1-2 2-3 2s-1.6-.6-1.6-2c0-.6.1-1.2.2-1.7l6.1-2c1.2-2.8-.2-4.1-1.9-4.1-2.9 0-6.2 4.9-6.2 9.1 0 1.9.9 3 2.3 3 1.8-.1 3.5-1.7 4.9-4.3m-1.2-9l4.3-4v-.5h-2.3l-2.7 4.5zm-12.7 2.9h1.6l-3.2 8.9c-.3.8.1 1.5.9 1.5 1.8 0 4.8-1.8 5.9-4.3h-.6c-.8.9-2.4 2-3.7 2.3l3-8.3h3l.4-1.3h-3l1.1-3.2h-1.2l-2.1 3.2-2.1.4zm-1.6 1c.4-1.4.2-2.7-.9-2.7-1.3 0-1.6 1-3 3.9v-1.6c0-1.2-.4-2.2-1.4-2.2-1.2 0-2.4 1.9-3.2 3.8h.5c.6-.9 1.2-1.4 1.6-1.4.5 0 .8.8 0 2.6l-2.4 5.3c-.4 1 0 1.6 1 1.6.6 0 .9-.2 1.1-.8l2.4-6.2c.7-.8 1.3-1.5 2-2.3zm-13.6-1.1c.8 0 1.5.6 1.2 2.2l-3.8.9c.6-1.8 1.7-3.1 2.6-3.1m2.1 6.2h-.8c-1 1.1-2 2-3 2s-1.6-.6-1.6-2c0-.6.1-1.2.2-1.7l6.1-2c1.2-2.8-.2-4.1-1.9-4.1-2.9 0-6.2 4.9-6.2 9.1 0 1.9.9 3 2.3 3 1.7-.1 3.5-1.7 4.9-4.3M27.4 171c-.6 0-1.5-.6-1.5-1 0-.2.3-.8.6-1.7l1-2.6c1.1-1.3 2.7-2.6 3.6-2.6.6 0 1 .4 1 1.2 0 2.3-2.2 6.7-4.7 6.7m7-7.8c0-1.8-.7-2.5-1.9-2.5-1.6 0-3 1.6-4.5 3.6l3.7-9.7-.2-.2-3.9.4v.5l.8.6c.7.5.5 1.1-.2 2.7l-4 10.3c-.3.8-.6 1.6-.6 1.9 0 1.1 1.4 2.1 2.8 2.1 3-.1 8-5.5 8-9.7m-12.1-1.1c.2-.8-.3-1.3-.7-1.3-1.8 0-3.9 1.6-4.7 3.8h.6c.6-.8 1.6-1.7 2.5-1.9l-3.4 8.8c-.3.8.3 1.3.7 1.3 1.7 0 3.7-1.6 4.5-3.8h-.6c-.6.8-1.6 1.7-2.5 1.9zm.7-4.5c.8 0 1.5-.6 1.5-1.5 0-.8-.7-1.5-1.5-1.5s-1.5.7-1.5 1.5c0 .9.6 1.5 1.5 1.5m-9-1.4H5.9l-.2.7c2.4.5 2.6.7 1.5 3.8L4.6 168c-1.1 3-1.6 3.3-4.3 3.8l-.2.7h12.3l2.7-4.7h-.9c-1.5 1.7-3.3 3.7-6 3.7-2.1 0-2.3-.4-1.2-3.5l2.6-7.3c1.1-3 1.6-3.3 4.3-3.8z"/><path fill="#000091" d="M45.7 35.6c.4-.4.9-.9 1.3-1.4.8-.9 1.6-1.8 2.5-2.6.3-.3.6-.5.8-.7.1-.1.1-.2.2-.3-.4.2-.6.5-1 .6-.1 0-.2-.1-.1-.2.3-.2.5-.4.8-.6h-.1c-.1 0-.1-.1-.1-.2-1-.2-1.7.5-2.4 1.1-.2.1-.3-.1-.4-.1-1.1.4-2 1.4-3.1 1.8v-.2c-.5.2-.9.4-1.4.5-.7.2-1.3.1-1.9.1-.9.1-1.8.3-2.8.5h-.1c-.5.1-1 .3-1.4.6h-.1l-.1.1-.5.5c-.5.2-.8.7-1.3 1h-.1l-1.2 1.2H33c-.1 0 0 0 0-.1.1-.1.1-.2.2-.3.1-.1.1-.2.2-.4s.2-.3.3-.5v-.1h-.1c.4-.4.8-.7 1.3-1-.1 0-.1 0-.1-.1s.1-.1.1-.2v-.1l-.1-.1c-.1.1-.3.2-.4.2-.2.2-.3.5-.6.5h-.2v-.3s0-.1.1-.1v-.1c0-.1.1-.1.1-.2v-.1l.1-.1c0-.1 0-.1-.1-.1.1-.2.3-.3.5-.5.3-.1.6-.3.9-.5l.1-.1c-.4.1-.8.3-1.2.6 0 0-.1 0-.1.1 0 0-.1 0-.2-.1v-.1c.1-.2.3-.2.5-.4.1 0 .2 0 .2.1 2.4-1.9 5.8-1.4 8.6-2.4.2-.2.5-.3.7-.5.4-.2.7-.5 1.1-.8.6-.5 1.1-1 1.3-1.7 0-.1-.1-.2-.1-.2-1 1.1-2.1 1.9-3.3 2.5-1.6.8-3.3.7-5 .9.1-.2.2-.2.4-.2 0-.2.2-.3.3-.5h.2c.1 0 .1-.2.2-.2.2 0 .4-.1.3-.1-.2-.3-.7.2-1.1 0 .2-.2.1-.4.2-.5h.3c0-.2.2-.3.2-.3 1.1-.7 2.2-1.2 3.3-1.8-.2 0-.4.2-.6.1.2 0 0-.2.2-.2.8-.2 1.5-.7 2.4-1-.3 0-.5.2-.8 0 .2-.1.2-.2.5-.2v-.2c0-.1.1-.1.2-.1-.1 0-.2-.1-.2-.1.1-.2.3-.1.5-.2-.1 0-.2 0-.2-.1.2-.3.6-.4 1-.5-.1-.2-.3 0-.3-.2 0-.1.1-.1.2-.1h-.2c-.2-.1-.1-.2-.1-.3.5-.5.5-1.2.7-1.8-.1 0-.2 0-.2-.1-.8.8-2 1.1-3.1 1.4h-.4c-.4.2-.9.2-1.3-.1-.3-.2-.5-.4-.8-.6-.6-.4-1.2-.7-1.9-.9-1.7.5-3.7.2-5.7.3.8-.5 1.8-.5 2.7-.8 1.3-.4 2.5-.8 3.9-.8-.2-.1-.5 0-.8 0-1.1-.1-2.1.2-3.3.5-.8.2-1.4.5-2.2.6-.5.2-.7.6-1.2.5v-.2c.8-.9 1.7-1.8 2.9-1.9 1.4-.2 2.7 0 4 .2 1 .1 1.9.3 2.9.5.4 0 .5.6.8.7.5.2.9 0 1.4.3 0-.2-.1-.3 0-.5.3-.3.7.1 1-.1.6-.4-.5-1.1-.8-1.6 0-.1.1-.2.1-.2.6.5 1.1 1.1 1.8 1.5.4.2 1.3.4 1.1-.1-.4-.8-1.1-1.5-1.7-2.3v-.3c-.2 0-.2-.1-.2-.2V18c-.3-.2-.2-.5-.4-.7-.2-.4-.1-.9-.2-1.4-.1-.5-.2-.8-.3-1.3-.2-1.3-.5-2.4-.7-3.6-.2-1.4.8-2.6 1.5-3.9.5-.9 1.1-1.8 2.1-2.4.2-.9.8-1.7 1.4-2.4.6-.7 1.6-1.2 2.3-1.5 1.1-.5 2-.8 2-.8H0v40.2h36.9c1.4-1 2.9-1.5 4.9-2.5 1-.3 3.1-1.3 3.9-2.1zM34 30.2c-.2 0-.5.1-.4-.1.1-.4.6-.4.9-.5.2-.1.4-.2.5-.2.2.2.4.2.5.3-.4.5-1 .3-1.5.5zm-11.6-1.7s-.1-.1-.1-.2c1-1.3 1.7-2.5 2.4-3.9 1-.5 1.8-1.3 2.6-2.1 1.3-1.4 2.7-2.6 4.3-3.3.6-.2 1.4-.2 2 .1-.2.3-.6.2-.9.5-.1 0-.2 0-.2-.1.1-.1.1-.2.1-.2-.8.8-1.8 1.2-2.4 2.2-.5.8-.8 1.7-1.7 2-.3.1.1-.2-.1-.2-2.5 1.4-4.2 3.2-6 5.2zm6.3-5c-.1.2-.2.2-.2.3-.1.2-.2.2-.3.3-.1 0-.2 0-.2-.1.1-.3.3-.6.6-.7.1.1.1.1.1.2zm3.5 11.4c0 .1-.1.2-.2.2.1 0 .2.1.1.1-.2.2-.3.3-.6.4h-.1l-.3.3c-.1.1-.5 0-.4-.1.2-.2.4-.4.6-.5l.3-.3.2-.2c.1 0 .5-.1.4.1zm-1.4-.6l-.9.6c-.3.2-.7.3-1 .5-.3.2-.1-.1-.1 0-.3.2-.5.4-.8.6l-.1.1-.1.1-.2.2-.1.1s-.2 0-.2-.1-.1 0-.1.1c0 0-.1 0-.1.1h-.2c-.1.1-.2.2-.3.2-.2.1-.3.3-.4.5-.1.2 0 .1-.1.1H26c-.1 0 0-.1-.1-.1.1-.1.2-.2.2-.3l.1-.1c0-.1.1-.1.1-.2v-.1c.1-.1.2-.2.2-.3 0-.1.1-.1.1-.2 0 0 .1-.1.1-.2s.1-.1.1-.2v-.3c.1-.1.2-.3.3-.4-.1.1-.2.2-.3.2-.1.1-.2 0-.1-.1.1 0 .1-.1.2-.2s.2-.3.4-.4c.1-.1.2-.1.2-.2l.2-.2c.7-.7 1.9-.7 2.9-1.1.4-.2.8.1 1.2 0 .2 0 .5 0 .7.2-.4.3-1 .7-1.7 1.1zm1.6-5.3c-.1-.1.2 0 .3-.2h-.6c-.1 0-.1-.1-.1-.2l-1.2.3c-.5.2-1 .5-1.6.7-.8.3-1.5 1-2.4 1.3-.1 0-.1-.1-.1-.2.1-.2.4-.3.5-.5 0-.1 0-.2-.1-.2.6-.8 1.4-1.3 2.2-2v-.2c.2-.3.6-.5.8-.8.1-.2.4-.5.8-.7-.1-.1-.2-.1-.2-.2-.3 0-.6.2-.9-.1.1-.1.3-.2.5-.3-.1 0-.1 0-.2-.1-.1-.2.1-.3.4-.4.3-.1.7-.1.9-.3-.5-.1-1.1.2-1.7-.2.4-1 1-1.8 1.9-2.3.1 0 .2 0 .2.1 0 .4-.2.7-.6.8.6.2 1.2.2 1.8.5-.1.2-.2.1-.3.1.4.2.8.1 1.2.4-.2.2-.5 0-.7 0 2.4.7 4.9 1.2 6.8 2.7-1.7.8-3.4 1.2-5.2 1.6-.2 0-.4 0-.6-.1 0 .1 0 .2-.1.2-.3 0-.5 0-.8.2-.2.2-.7.3-.9.1z"/><path fill="#e1000f" d="M110.5.2H67.3s.1 0 .4.2c.4.2.8.4 1.1.6.6.3 1.1.7 1.4 1.2.2.2.4.7.2 1-.2.4-.2 1-.6 1.1-.5.2-1.1.2-1.6.2-.3 0-.6-.1-.9-.2 1.1.5 2.2 1 3 2 .1.2.4.2.7.2v.3c-.2.2-.3.2-.2.5h.2c.4-.2.3-.9.8-.7.4.2.5.8.3 1.1-.3.3-.6.5-.9.8-.1.2-.1.4 0 .5.2.3.3.6.4.9.2.5.3 1.1.5 1.7.3 1.1.6 2.3.5 3.4 0 .6-.3 1.1-.1 1.7.2.6.5 1.1.8 1.6.3.5.6.8.8 1.2.5.8 1.3 1.5.9 2.4-.2.5-1.1.5-1.6.8-.5.4-.1 1 .2 1.4.4.7-.5 1.1-1 1.4.2.2.5.2.5.3.1.4.5.6.2 1-.3.5-1.2.7-.8 1.4.3.5.1 1.1-.1 1.7-.2.7-.8 1-1.4 1.1-.5.2-1 .2-1.4.1-.2-.1-.3-.2-.5-.2-1.3-.2-2.6-.5-3.9-.5-.4.1-.8.2-1.1.3-.3.3-.6.5-.9.8l-.2.2-.1.1s0 .1-.1.1l-.6.9v.1s0 .1-.1.1c-.2.5-.4.9-.6 1.4-.5 1.7-.3 3.2.1 3.6.1.1 2.5.8 4.2 1.6.8.3 1.3.6 1.8.9H110V.2z"/><path fill="#9d9d9c" d="M69.8 14.9c.3.1.8.1.8.2-.2.6-1.1.8-1.5 1.4h-.2c-.2.2-.2.5-.4.5-.2-.1-.5 0-.7.1.3.3.7.5 1.1.5.1 0 .2.2.2.3 0 0 .1 0 .2-.1.1 0 .2 0 .2.1v.3c-.2.3-.6.2-.9.2.6.2 1.2.2 1.7 0s0-.9.3-1.3c-.2 0 0-.2-.2-.2.2-.2.3-.4.5-.5.2 0 .4-.1.5-.2 0-.2-.3-.2-.2-.4.5-.3.8-.8.7-1.2-.1-.2-.7-.2-1.1-.4-.4-.2-.8 0-1.3.1-.4 0-.8.2-1.1.3-.5.2-1 .5-1.4.8.5-.2 1.1-.3 1.7-.5.3 0 .7-.2 1.1 0z"/></svg>