<svg xmlns="http://www.w3.org/2000/svg" width="22.048" height="21.198" viewBox="0 0 5.834 5.609">
  <title>symbols defs</title>
  <defs>
    <symbol viewBox="0 0 5.834 5.609" id="priorite">
      <path
        d="M1.715 4.728a.062.062 0 01-.062-.071l.198-1.31-.964-.906a.06.06 0 01-.016-.063.06.06 0 01.048-.043l1.304-.216.561-1.2c.01-.022.031-.041.056-.036.023 0 .045.013.055.034l.608 1.176 1.31.165a.062.062 0 01.037.105l-.928.943.25 1.301a.062.062 0 01-.024.061.06.06 0 01-.065.006l-1.181-.593-1.157.64a.062.062 0 01-.03.007" />
    </symbol>
    <symbol viewBox="0 0 5.834 5.609" id="difficulte">
      <g>
        <path
          d="M2.798 4.769h-.171a.226.226 0 01-.227-.227v-.13a.128.128 0 00-.064-.11.378.378 0 00-.067-.018.128.128 0 00-.11.063l-.064.113a.229.229 0 01-.293.092h-.003l-.194-.117a.225.225 0 01-.05-.287l.065-.113a.127.127 0 000-.128.49.49 0 00-.05-.048.13.13 0 00-.126 0l-.112.066a.238.238 0 01-.107.03h-.004a.23.23 0 01-.176-.08H1.04l-.107-.187a.228.228 0 01.087-.303l.113-.066a.128.128 0 00.063-.11.351.351 0 00-.017-.065.128.128 0 00-.11-.063h-.13a.226.226 0 01-.227-.224v-.172a.228.228 0 01.226-.228h.131a.128.128 0 00.11-.064.34.34 0 00.017-.066.13.13 0 00-.063-.11l-.113-.064a.226.226 0 01-.085-.308l.008-.015.08-.137.002-.004a.227.227 0 01.193-.107c.037.004.08.01.114.03l.113.066c.04.022.089.022.127 0a.43.43 0 00.05-.05.126.126 0 00-.002-.126l-.066-.112a.23.23 0 01.066-.3V1.09L1.793.99a.234.234 0 01.225.008c.033.02.059.047.078.08l.065.113a.128.128 0 00.11.063.437.437 0 00.067-.018.13.13 0 00.062-.11v-.13a.228.228 0 01.224-.227h.172c.085.001.16.047.2.119.018.033.028.07.028.108v.13c0 .046.025.089.064.11.009.005.054.017.066.018a.13.13 0 00.11-.063l.064-.113A.23.23 0 013.63.99L3.645 1l.145.084a.227.227 0 01.078.306l-.065.114a.126.126 0 000 .127c.005.008.038.04.048.048a.126.126 0 00.126 0l.113-.066a.227.227 0 01.306.076v.001l.003.004.089.155a.228.228 0 01-.087.305l-.112.065a.127.127 0 00-.063.11c0 .01.012.055.018.066a.129.129 0 00.11.063h.13a.228.228 0 01.227.224v.172a.23.23 0 01-.119.2.231.231 0 01-.108.027h-.131a.128.128 0 00-.11.065.392.392 0 00-.017.066c0 .043.024.086.063.108l.113.066a.228.228 0 01.085.308l-.088.152-.002.004a.23.23 0 01-.194.106h-.004a.234.234 0 01-.109-.03l-.113-.065a.126.126 0 00-.127 0 .453.453 0 00-.049.049.127.127 0 00.001.126l.066.113a.227.227 0 01-.073.304l-.01.007-.164.093a.231.231 0 01-.216-.012.244.244 0 01-.077-.08l-.066-.113a.127.127 0 00-.11-.063.368.368 0 00-.066.017.129.129 0 00-.063.11v.13c0 .04-.01.075-.028.109a.225.225 0 01-.197.118" />
        <path
          d="M2.711 3.708a.94.94 0 01-.939-.94.94.94 0 01.94-.938.94.94 0 01.938.939.94.94 0 01-.939.939m0-1.696a.757.757 0 10.001 1.514.757.757 0 000-1.514"
          stroke-width=".255" />
      </g>
    </symbol>
    <symbol viewBox="0 0 5.834 5.609" id="environnement">
      <defs>
        <clipPath id="a" clipPathUnits="userSpaceOnUse">
          <path d="M0 0h595.276v841.89H0z" />
        </clipPath>
      </defs>
      <g clip-path="url(#a)" transform="matrix(.25656 0 0 -.25656 -21.132 119.718)">
        <path
          d="M88.055 461.382l.065.057-.065-.057zm7.971-2.358c-.009.162-.205.224-.34.295.007.15.046.031.037.175-.047.002-.074.01-.119-.009-.105-.046-.046-.06-.046-.077.004-.08.105.017-.003-.082-.03-.026-.079-.026-.116-.03-.073.101-.068.151-.208.155a.697.697 0 01-.15-.24c-.048-.139-.015-.044-.01-.193-.003-.006 0-.013 0-.019-.003-.089-.024.017-.01-.065.11.022.026.02.108.047.076.026.312.097.38.08.16-.037.296-.165.477-.037zm.58-.319c.113-.083.197-.133.346-.092.021.183-.037.174-.093.3.01.014.035.032.04.036.042.056.02-.022.042.073-.11.035-.287.147-.3.295.052.043.036.017.076.043.086.056.021-.03.072.065-.044.086-.093.101-.2.058a1.373 1.373 0 01-.196-.127c.016-.228.151-.315.247-.42-.012-.108-.038-.08-.035-.23zm3.401-1.555a.674.674 0 00-.066.143c-.142-.047-.147-.05-.314-.079l-.008-.01c-.067-.095.003-.055-.114-.154-.14-.117-.23-.278-.387-.373-.019-.167.014-.204-.028-.402-.016-.072-.098-.268-.193-.254-.03.006-.159.324-.189.411-.052.15-.11.26-.147.432-.02.091-.035.267-.057.328-.1-.015-.095-.078-.19-.01-.069.048-.038.077-.075.15-.08.075-.16.15-.243.224-.063.021-.305-.015-.408-.003-.184.016-.2.005-.31.153-.194-.01-.177-.082-.366.08-.124.104-.1.272-.28.178-.007-.154.068-.187.135-.258.05-.055.11-.092.136-.164.002-.003.014-.07.016-.08.175-.012.217.072.312.143.094-.088.003-.103.138-.172.107-.054.086-.022.157-.11.034-.118-.24-.437-.332-.495-.07-.045-.107-.018-.17-.07-.093-.079.012-.068-.15-.128-.176-.063-.349-.198-.533-.209l-.119.33c-.117.374-.112.23-.23.423-.057.083-.034.138-.07.213-.026.056-.066.08-.1.15-.055.105-.117.271-.24.254-.027-.083.113-.367.148-.436.035-.07.091-.099.108-.198.023-.137-.005-.12.07-.21.156-.19-.007-.156.235-.34.182-.139.135-.18.212-.365.12-.034.473.125.534.078.072-.129-.084-.334-.124-.446-.13-.375-.359-.37-.534-.657-.095-.156-.139-.176-.228-.362-.1-.212.203-.796.021-1.04-.04-.057-.168-.09-.328-.26-.17-.185.004-.153-.062-.462-.05-.07-.113-.074-.177-.125-.023-.072-.004-.13-.044-.22-.042-.108-.049-.05-.11-.138-.044-.069-.039-.097-.09-.16-.045-.058-.068-.075-.11-.113-.203-.187-.639-.192-.676-.166-.103.088-.033.11-.058.233-.026.11-.083.2-.13.283l-.006.01a.684.684 0 00-.056.116c-.084.266-.054.467-.2.736-.185.348.102.53.09.725-.005.052-.023.084-.028.125-.035.216-.056.411-.2.58-.159.186-.138.12-.087.424.066.35-.083.26-.293.27-.103.317-.304.162-.504.068-.126-.057-.173.017-.315-.003-.317-.043-.068-.18-.492.156-.177.141-.058.07-.163.245-.035.064-.142.148-.19.211-.162.202.03.405.001.636-.049.43-.119.057.121.576.126.276.318.278.366.401.042.11.014.19.093.29.07.082.171.065.21.194.056.16-.05.18-.168.183-.049.166-.049.125-.01.278.02.086.001.127.02.213.046.214.413.002.517.09.05.091.056.181 0 .268-.058.088-.135.077-.175.161.09.06.024.007.1.024.091.021.08.047.187.067.096.02.157.107.25.167.133.085.07.162.23.19.26.043.091.036.12.277.04.015.076.032.113.048.082-.106-.02-.063.077-.134l.084.045c-.014.116-.068.093-.103.237-.128-.02-.174-.129-.277-.09-.1.038-.105.181-.1.301.037.09.223.138.296.161.117.04.1.117.208.224.14.14.037-.002.105.18.154.005.081.01.172.057l.005.002.01.003c.053.025.123.031.193.054.256.086.361.043.548-.033.144-.06.58-.062.613-.245-.105-.11-.205-.03-.357-.039.028-.142.04-.142.168-.18.021.066-.009.04.026.083l.126-.024c.042.143.091.123.233.14-.024.1-.049.071.005.15.147-.016.028-.003.1-.12.103.013.203.127.345.141.088.01.084-.024.21-.01.102.01.098.048.2.005.038.07 0 .067.091.084.14.024.262-.062.396-.08-.1.123-.195.1-.07.304.154.032.17.01.236-.109.04.022.055.044.074.055-.01.01-.02.017-.032.026a11.844 11.844 0 01-.212.161l-.15.108-.049.034a9.936 9.936 0 01-.186.123l-.018.011a10.11 10.11 0 01-.397.235l-.029.016a12.102 12.102 0 01-.252.131 11.579 11.579 0 01-.412.187 5.183 5.183 0 01-.486.184c-.013.004-.027.01-.04.013a5.27 5.27 0 01-.178.057l-.069.02-.189.053-.03.008a5.69 5.69 0 01-.218.052l-.07.015a5.298 5.298 0 01-.23.046c-.073.014-.147.025-.22.036l-.068.01a8.147 8.147 0 01-.173.022l-.069.008a7.429 7.429 0 01-.223.02l-.055.003-.184.01-.075.003c-.073.002-.145.004-.218.004h-.017a7.252 7.252 0 01-4.696-1.717l.004-.007c.01-.015.016-.015.025-.054-.117-.029-.117-.048-.162-.054l-.08-.072c.085-.029.196-.01.28-.007.03.056.05.105.102.125a.2.2 0 00.082.008.634.634 0 01.02-.084l.002-.017c.002.002.004-.012.006-.017.147.086.023.088.102.243-.123.024-.107.01-.184.088.075.082.22.11.327.102-.007-.074-.042-.072-.014-.136.084.053.142.192.277.167.026-.019.056-.036.084-.053-.07-.065-.175-.069-.266-.106-.04-.405.128-.066.072-.344.101.007.2.08.236.155-.037.05-.09.05-.12.107a.266.266 0 00.144.165.402.402 0 00.17.035c.741-.006.39-.04.618-.144.051-.023.142-.034.172-.079.047-.07.003-.137.077-.194.065-.048.075.002.161-.106-.018-.062-.063-.125-.154-.127-.126-.002-.05.084-.186.071.002-.127.128-.176.011-.245-.102-.06-.037.023-.114-.02l-.012-.008a1.7 1.7 0 00-.049-.054c-.186.051-.15.028-.263.151-.042.047-.049.06-.124.052-.046 0-.107-.022-.152.02.091.113.136.003.27.07.022.011.17.125.192.152-.039.09-.004.015-.063.072-.13.133-.168.1-.345.1-.083-.096-.145-.214-.235-.266-.055-.032-.119-.039-.205-.002.04-.16.142-.037.151-.232-.068.014-.103.048-.173.023-.149-.056-.016-.05-.004-.08 0-.002.07-.009 0-.035-.077-.029-.012.014-.16.102l.062.116a2.925 2.925 0 01-.415-.167 1.826 1.826 0 01-.403-.255c-.003-.14.023-.047.037-.213.217-.013.147-.078.364-.14.042-.01.095-.022.161-.034 0-.104-.094-.183-.029-.29.152-.107.157.1.194.232.513.107.266.258.398.541.02.042.048.087.09.135.04 0 .2-.019.235-.026.116-.02.053-.048.18-.104-.003-.1-.054-.232.095-.208.114.02.088.11.228.133.063-.148.047-.21.075-.389.336-.13.186-.236.121-.48.042-.022.086-.04.131-.06l-.008-.209c-.006 0-.359.077-.382.084.054.153.152.155.214.312-.125-.022-.116-.06-.207-.089-.08-.025-.144-.008-.23-.019a.169.169 0 00.006-.04c.005-.05.028-.003-.005-.055-.116.054-.076.181-.293.063.05-.022.097-.043.15-.063-.008-.144-.02-.036-.05-.13-.075-.246.203-.094.275-.082-.019-.128-.098-.128-.21-.164-.124-.037-.16-.087-.259-.11 0 .153-.228.034-.228.034-.12-.049-.672-.568-.676-.572.026-.192-.49-.552-.474-1.002-.06.018-.119.04-.175.06-.044.298.017.2-.224.268-.258.075-.223-.052-.33-.074-.12-.027-.178.108-.35-.004-.096-.066-.3-.467-.292-.622.017-.42.4-.444.497-.248.065.13.05.202.261.168.021-.112-.012-.194-.04-.28-.018-.05-.07-.142-.044-.21.151-.063.156.053.356-.066.015-.2-.09-.425.064-.54.118-.087.126-.009.23.01.117.02.096-.053.203-.07.061.075.035.028.075.12.07.158.088.083.254.181l.047.03c.018-.04.193-.11.333-.15a.55.55 0 01.136-.023c.102 0 .112.048.251 0 .016-.009.037-.014.056-.02.003 0 .01-.004.01-.007l.011-.01c.023-.026.026-.052.044-.08.096-.09.192-.183.285-.273.184-.072.184.064.394-.139.09-.084.05-.083.098-.19.007-.018.021-.035.03-.055l.061-.148c.096-.125.226-.047.36-.175.076-.075.018-.052.188-.082.263-.043.161-.019.362-.17.076-.056.095-.025.167-.073.1-.14.075-.292-.009-.415-.259-.377-.17-.315-.182-.614-.009-.172-.058-.527-.219-.57-.585-.164-.245-.278-.399-.567-.044-.082-.077-.103-.105-.168-.116-.273-.035-.364-.38-.303.033-.058.012-.019.045-.07.102-.159.12-.279-.09-.318-.176-.034-.1 0-.118-.194-.067-.028-.098 0-.142-.045.061-.112.005-.019.108-.082-.02-.062-.033-.122-.05-.18-.039-.147-.05-.013-.065-.182.061-.029.102-.023.156-.096-.007-.056-.063-.209-.079-.297.086-.129.156-.267.341-.28-.003-.108.023-.097-.07-.119-.079-.019-.247.056-.318.093a.85.85 0 00-.315.274c-.046.07-.027.036-.076.101-.089.114-.054.167-.079.243-.015.045-.087.093-.057.24.008.04.073.236-.006.202-.08-.03.06-.018-.05-.07-.025.07-.046.175-.06.263-.028.147-.063.153-.08.243-.035.207.054.23-.044.575-.065.228-.038.77-.106 1.047a.455.455 0 01-.04.111c-.064.104-.218.153-.34.237-.008.001-.013.003-.015.007-.17.12-.332.588-.467.764-.063.084-.103.047-.13.18-.03.12.016.1.056.201-.208.381.268.375.17.833a.511.511 0 01-.133.238c-.098-.043-.05-.067-.103-.149l-.235.135c-.24.231-.112.063-.179.214-.145.318-.283.14-.455.297-.077.065-.09.168-.219.15-.194-.027-.087-.057-.287.037-.17.08-.348.174-.467.282-.006.227.063.205-.109.414a7.311 7.311 0 01-.165-1.819l.002-.054c.003-.079.007-.158.013-.236v-.01c.007-.082.014-.164.023-.246l.006-.05c.008-.073.018-.146.028-.218l.004-.026c.012-.08.026-.16.04-.24l.01-.044a7.025 7.025 0 01.26-.986l.007-.022.076-.206a7.54 7.54 0 01.105-.263l.001-.004c.031-.072.063-.143.096-.214l.017-.036c.07-.145.141-.287.22-.427l.017-.032a7.15 7.15 0 01.25-.412l.017-.026a6.91 6.91 0 01.28-.397l.015-.018c.048-.064.097-.126.147-.187l.003-.005c.053-.064.107-.128.162-.19l.01-.01a9.11 9.11 0 01.16-.177l.008-.009c.113-.12.232-.238.354-.35l.01-.01a7.75 7.75 0 01.377-.325l.012-.01a7.37 7.37 0 01.4-.298l.012-.009c.136-.094.277-.184.42-.269l.012-.008a6.967 6.967 0 01.451-.246 7.283 7.283 0 0110.425 7.781zm-7.1 3.381c.018-.042.037-.083.058-.124.028-.116-.063-.02.028-.159.072-.085.142-.17.212-.257-.045-.129-.042-.14-.168-.15-.089-.009-.189-.033-.256-.029.025.166-.024.08.016.175.044.114.051.028.09.14-.086.127-.177.04-.172.301.082.073.07.061.191.103zm3.831-6.734c-.038-.102-.07-.227-.105-.338-.047-.155-.157-.649-.359-.454-.068.064-.066.28-.022.365.124.231.012.177.054.354.033.142.145.107.23.183.075.068.09.187.192.24.1-.142.047-.239.01-.35zm3.26 3.411c.002-.019.006-.038.01-.058 0 0 0 0 0 0l-.01.058z"
          fill="none" stroke="#7fa03d" stroke-width=".55" stroke-linecap="round" stroke-linejoin="round"
          stroke-miterlimit="10" />
        <path d="M100.08 455.889a7.245 7.245 0 10-14.49 0 7.245 7.245 0 0014.49 0z" fill="none" stroke="#7fa03d"
          stroke-width="1.1" stroke-linecap="round" stroke-linejoin="round" stroke-miterlimit="10" />
      </g>
    </symbol>
    <symbol viewBox="0 0 5.834 5.609" id="social">
      <defs>
        <clipPath id="a" clipPathUnits="userSpaceOnUse">
          <path d="M0 0h595.276v841.89H0z" />
        </clipPath>
      </defs>
      <g clip-path="url(#a)" transform="matrix(.25656 0 0 -.25656 -21.062 125.095)">
        <path
          d="M96.479 480.693c0-1.904-1.631-3.447-3.644-3.447-2.012 0-3.644 1.543-3.644 3.447 0 1.904 1.632 3.447 3.644 3.447 2.013 0 3.644-1.543 3.644-3.447z"
          fill="none" stroke="#7fa03d" stroke-width="1.375" stroke-miterlimit="10" />
        <path d="M85.727 470.955c.982 2.58 3.794 4.442 7.108 4.442 3.314 0 6.124-1.86 7.108-4.44" fill="none"
          stroke="#7fa03d" stroke-width="1.375" stroke-linecap="round" stroke-linejoin="round" stroke-miterlimit="10" />
      </g>
    </symbol>
    <symbol viewBox="0 0 5.834 5.609" id="economie">
      <defs>
        <clipPath id="a" clipPathUnits="userSpaceOnUse">
          <path d="M0 0h595.276v841.89H0z" />
        </clipPath>
      </defs>
      <g clip-path="url(#a)" transform="matrix(.25657 0 0 -.25657 -21.084 114.28)">
        <path d="M92.835 427.467a7.277 7.277 0 017.277 7.277 7.277 7.277 0 11-7.277-7.277z" fill="none" stroke="#7fa03d"
          stroke-width="1.036" stroke-linecap="round" stroke-linejoin="round" stroke-miterlimit="10" />
        <path
          d="M95.74 432.598a.574.574 0 01-.214-.04 1.489 1.489 0 01-.25-.145 5.71 5.71 0 00-.85-.492 1.743 1.743 0 00-.711-.156c-.433 0-.778.133-1.036.399-.26.266-.438.68-.538 1.244h1.48a.459.459 0 01.476.463.43.43 0 01-.134.324.47.47 0 01-.341.127h-1.574a5.518 5.518 0 00-.012.429c0 .192.004.335.012.428h1.574a.47.47 0 01.34.127.43.43 0 01.135.324.459.459 0 01-.475.463H92.14c.1.556.279.967.538 1.233.258.266.603.399 1.036.399.254 0 .503-.05.746-.15.243-.101.515-.266.816-.498.1-.07.183-.118.249-.145a.555.555 0 01.214-.04c.139 0 .255.06.347.179.093.12.139.264.139.434a.65.65 0 01-.064.307.799.799 0 01-.202.237c-.34.286-.71.504-1.111.654a3.367 3.367 0 01-1.192.226c-.78 0-1.428-.247-1.945-.741-.517-.494-.864-1.192-1.041-2.095h-.753a.464.464 0 01-.335-.133.438.438 0 01-.14-.33c0-.123.047-.23.14-.318a.464.464 0 01.335-.133h.649a5.506 5.506 0 01-.012-.428c0-.193.004-.336.012-.43h-.65a.476.476 0 01-.334-.126.42.42 0 01-.14-.324c0-.131.047-.241.14-.33a.464.464 0 01.335-.133h.753c.177-.91.522-1.613 1.036-2.106.513-.494 1.163-.741 1.95-.741.4 0 .798.075 1.192.226.393.15.764.368 1.11.654a.66.66 0 01.267.544.688.688 0 01-.14.434.423.423 0 01-.346.179"
          fill="#7fa03d" />
      </g>
    </symbol>
  </defs>
</svg>
