<svg xmlns="http://www.w3.org/2000/svg" width="20.901" height="20.899" viewBox="0 0 5.53 5.529"><g stroke-width=".255"><path d="M2.798 4.769h-.171a.226.226 0 01-.227-.227v-.13a.128.128 0 00-.064-.11.378.378 0 00-.067-.018.128.128 0 00-.11.063l-.064.113a.229.229 0 01-.293.092h-.003l-.194-.117a.225.225 0 01-.05-.287l.065-.113a.127.127 0 000-.128.49.49 0 00-.05-.048.13.13 0 00-.126 0l-.112.066a.238.238 0 01-.107.03h-.004a.23.23 0 01-.176-.08H1.04l-.107-.187a.228.228 0 01.087-.303l.113-.066a.128.128 0 00.063-.11.351.351 0 00-.017-.065.128.128 0 00-.11-.063h-.13a.226.226 0 01-.227-.224v-.172a.228.228 0 01.226-.228h.131a.128.128 0 00.11-.064.34.34 0 00.017-.066.13.13 0 00-.063-.11l-.113-.064a.226.226 0 01-.085-.308l.008-.015.08-.137.002-.004a.227.227 0 01.193-.107c.037.004.08.01.114.03l.113.066c.04.022.089.022.127 0a.43.43 0 00.05-.05.126.126 0 00-.002-.126l-.066-.112a.23.23 0 01.066-.3V1.09L1.793.99a.234.234 0 01.225.008c.033.02.059.047.078.08l.065.113a.128.128 0 00.11.063.437.437 0 00.067-.018.13.13 0 00.062-.11v-.13a.228.228 0 01.224-.227h.172c.085.001.16.047.2.119.018.033.028.07.028.108v.13c0 .046.025.089.064.11.009.005.054.017.066.018a.13.13 0 00.11-.063l.064-.113A.23.23 0 013.63.99L3.645 1l.145.084a.227.227 0 01.078.306l-.065.114a.126.126 0 000 .127c.005.008.038.04.048.048a.126.126 0 00.126 0l.113-.066a.227.227 0 01.306.076v.001l.003.004.089.155a.228.228 0 01-.087.305l-.112.065a.127.127 0 00-.063.11c0 .01.012.055.018.066a.129.129 0 00.11.063h.13a.228.228 0 01.227.224v.172a.23.23 0 01-.119.2.231.231 0 01-.108.027h-.131a.128.128 0 00-.11.065.392.392 0 00-.017.066c0 .043.024.086.063.108l.113.066a.228.228 0 01.085.308l-.088.152-.002.004a.23.23 0 01-.194.106h-.004a.234.234 0 01-.109-.03l-.113-.065a.126.126 0 00-.127 0 .453.453 0 00-.049.049.127.127 0 00.001.126l.066.113a.227.227 0 01-.073.304l-.01.007-.164.093a.231.231 0 01-.216-.012.244.244 0 01-.077-.08l-.066-.113a.127.127 0 00-.11-.063.368.368 0 00-.066.017.129.129 0 00-.063.11v.13c0 .04-.01.075-.028.109a.225.225 0 01-.197.118" fill="#80a13d"/><path d="M2.711 3.708a.94.94 0 01-.939-.94.94.94 0 01.94-.938.94.94 0 01.938.939.94.94 0 01-.939.939m0-1.696a.757.757 0 10.001 1.514.757.757 0 000-1.514" fill="#fff"/></g></svg>