<svg xmlns="http://www.w3.org/2000/svg" version="1.1" id="Calque_1" x="0" y="0" xml:space="preserve" width="50" height="50"><style id="style3398">.st0{fill:none;stroke:#036a7b;stroke-width:1.5;stroke-linecap:round;stroke-linejoin:round;stroke-miterlimit:10}</style><path class="st0" d="M42.773 35.368c-5.041.448-6.722 1.68-7.506 5.154h-20.39c-1.007-3.473-2.8-4.706-7.617-5.154-.672-5.601-1.457-11.203-2.24-17.028h40.106c-.784 5.825-1.569 11.427-2.353 17.028zM4.795 18.116c-3.697-1.233-.448-5.378 1.12-7.282 2.353-2.913 2.577-3.025 6.162-1.569 1.68.672 1.905 2.353 2.129 3.81.224 1.456 1.12 2.912 1.12 4.592" id="path3400" opacity="1" stop-opacity="1"/><path d="M12.637 24.837h24.87m-22.63 4.594h20.278M17.791 33.8h14.563" fill="none" stroke="#80a13e" stroke-width="1.332" stroke-linecap="round" stroke-linejoin="round" stroke-miterlimit="10" id="path3402" opacity="1" stop-opacity="1"/><path class="st0" d="M45.014 18.228c1.568-.112 2.128-.449 2.353-1.68.224-.897-.449-1.793-1.009-2.466-1.232-1.68-2.8-3.248-4.93-3.697-2.576-.448-4.704-1.232-6.833-2.912-.784-.56-1.456-1.569-2.353-.784-.784.56-1.232 1.792-1.904 2.464-1.12 1.008-2.353 2.24-1.68 3.921.672 1.905 2.688 3.137 3.584 4.818M13.533 10.61c-.784-2.017 2.465-7.282 7.955-7.73 2.128-.225 2.24 2.576 3.697 4.145.672.784 3.473 2.688 3.36 4.705" id="path3404" opacity="1" stop-opacity="1"/><path fill="none" d="M7.932 38.14c-2.913 0-4.621 1.597-4.621 4.622s1.596 4.622 4.62 4.622c2.914 0 4.62-1.598 4.62-4.622 0-3.025-1.594-4.623-4.619-4.623m0 .926c2.016 0 3.697 1.68 3.697 3.697 0 2.017-1.68 3.697-3.697 3.697-2.017 0-3.697-1.68-3.697-3.697 0-2.128 1.68-3.697 3.697-3.697m34.281-.926c-2.913 0-4.622 1.598-4.622 4.623 0 3.025 1.597 4.622 4.622 4.622 2.913 0 4.623-1.598 4.623-4.622 0-3.025-1.71-4.623-4.623-4.623m0 .926c2.017 0 3.697 1.68 3.697 3.697 0 2.017-1.68 3.697-3.697 3.697-2.016 0-3.697-1.68-3.697-3.697 0-2.128 1.68-3.697 3.697-3.697" id="path3406" opacity="1" stroke="#036a7b" stroke-width="1.22" stroke-miterlimit="4" stroke-dasharray="none" stroke-opacity="1" stop-opacity="1"/></svg>