<svg xmlns="http://www.w3.org/2000/svg" height="50" width="50" xml:space="preserve" y="0" x="0" id="Calque_1" version="1.1"><style id="style4049">.st2,.st3{fill:none;stroke:#02697a;stroke-width:1.5;stroke-miterlimit:10}.st3{stroke-linecap:round;stroke-linejoin:round}</style><switch transform="translate(-1.594 3.76) scale(.78767)" id="switch4073"><g id="g4071"><g id="g4055" stroke-miterlimit="10" stroke-width="1.5" stroke="#7fa03e" fill="none"><circle id="circle4051" r="5.6" cy="32.3" cx="33.6"/><path id="path4053" stroke-linejoin="round" stroke-linecap="round" d="M23.2 47.1c1.4-4.4 5.6-7.5 10.4-7.5 4.9 0 9 3.2 10.4 7.5"/></g><circle id="circle4057" r="5.6" cy="25.2" cx="51.6" class="st2"/><path id="path4059" d="M41.2 40c1.4-4.4 5.6-7.5 10.4-7.5 4.9 0 9 3.2 10.4 7.5" class="st3"/><circle id="circle4061" r="5.6" cy="25.2" cx="15.5" class="st2"/><path id="path4063" d="M5.1 40c1.4-4.4 5.6-7.5 10.4-7.5 4.9 0 9 3.2 10.4 7.5" class="st3"/><g id="g4069"><circle id="circle4065" r="5.6" cy="10.9" cx="33.6" class="st2"/><path id="path4067" d="M23.2 25.7c1.4-4.4 5.6-7.5 10.4-7.5 4.9 0 9 3.2 10.4 7.5" class="st3"/></g></g></switch></svg>