<svg xmlns="http://www.w3.org/2000/svg" width="22.048" height="21.198" viewBox="0 0 5.834 5.609">
  <path d="M1.715 4.728a.062.062 0 01-.062-.071l.198-1.31-.964-.906a.06.06 0 01-.016-.063.06.06 0 01.048-.043l1.304-.216.561-1.2c.01-.022.031-.041.056-.036.023 0 .045.013.055.034l.608 1.176 1.31.165a.062.062 0 01.037.105l-.928.943.25 1.301a.062.062 0 01-.024.061.06.06 0 01-.065.006l-1.181-.593-1.157.64a.062.062 0 01-.03.007" fill="#80a13d"/>
  <path fill="none" d="M-.024 0h5.882v5.622H-.024z"/>
</svg>
