<svg version="1.1" id="Calque_1" xmlns="http://www.w3.org/2000/svg" x="0" y="0" viewBox="0 0 51 38" xml:space="preserve"><style>.st1{fill:none;stroke:#7fa03e;stroke-width:1.5;stroke-linecap:round;stroke-linejoin:round;stroke-miterlimit:10}</style><switch><g><path d="M43.4 18c.6-1.1.9-2.3.9-3.6 0-4.2-3.4-7.5-7.5-7.5-1 0-1.9.2-2.7.5-1.3-2.5-4-4.3-7.1-4.3-4.2 0-7.6 3.2-8 7.2h-.2c-5.6 0-10.1 4.5-10.1 10.1s4.5 10.1 10.1 10.1c1.8 0 3.4-.5 4.9-1.2.3.9.8 1.7 1.5 2.4 2.5 2.5 6.5 2.5 9 0 .6-.6 1-1.3 1.4-2 1.3 1.3 3.1 2.2 5.1 2.2 4 0 7.2-3.2 7.2-7.2 0-3.1-1.8-5.7-4.5-6.7z" fill="none" stroke="#4e79a0" stroke-width="1.5" stroke-linecap="round" stroke-linejoin="round" stroke-miterlimit="10"/><path class="st1" d="M17.1 15.5c-.4.6-.6 1.4-.7 2.2-.1 2.5 1.8 4.7 4.3 4.8.6 0 1.1 0 1.7-.2.7 1.6 2.3 2.7 4.2 2.8 2.5.1 4.7-1.7 5.1-4.1h.1M11.2 5.4c-.7-.1-1.3.3-1.6.9L9.3 6c-1.1-.9-2.8-.8-3.7.3S4.9 9 6 9.9c1.1.9 2.7.8 3.6-.3.4-.4.5-.9.6-1.4.2.1.3.2.5.2.8.1 1.6-.4 1.7-1.2.1-.8-.4-1.6-1.2-1.8z"/></g></switch></svg>