<?xml version="1.0" encoding="UTF-8" standalone="no"?>
<svg
   xmlns:dc="http://purl.org/dc/elements/1.1/"
   xmlns:cc="http://creativecommons.org/ns#"
   xmlns:rdf="http://www.w3.org/1999/02/22-rdf-syntax-ns#"
   xmlns:svg="http://www.w3.org/2000/svg"
   xmlns="http://www.w3.org/2000/svg"
   xmlns:sodipodi="http://sodipodi.sourceforge.net/DTD/sodipodi-0.dtd"
   xmlns:inkscape="http://www.inkscape.org/namespaces/inkscape"
   sodipodi:docname="picto-engrenage.svg"
   inkscape:version="1.0beta1 (fe3e306, 2019-09-17)"
   id="svg1804"
   version="1.1"
   viewBox="0 0 5.5301442 5.529439"
   height="5.529439mm"
   width="5.5301442mm">
  <defs
     id="defs1798" />
  <sodipodi:namedview
     inkscape:window-maximized="0"
     inkscape:window-y="23"
     inkscape:window-x="0"
     inkscape:window-height="755"
     inkscape:window-width="1280"
     fit-margin-bottom="0"
     fit-margin-right="0"
     fit-margin-left="0"
     fit-margin-top="0"
     showgrid="false"
     inkscape:document-rotation="0"
     inkscape:current-layer="layer1"
     inkscape:document-units="mm"
     inkscape:cy="356.16362"
     inkscape:cx="270.45067"
     inkscape:zoom="0.35"
     inkscape:pageshadow="2"
     inkscape:pageopacity="0.0"
     borderopacity="1.0"
     bordercolor="#666666"
     pagecolor="#ffffff"
     id="base" />
  <metadata
     id="metadata1801">
    <rdf:RDF>
      <cc:Work
         rdf:about="">
        <dc:format>image/svg+xml</dc:format>
        <dc:type
           rdf:resource="http://purl.org/dc/dcmitype/StillImage" />
        <dc:title></dc:title>
      </cc:Work>
    </rdf:RDF>
  </metadata>
  <g
     transform="translate(-34.276595,-53.931708)"
     id="layer1"
     inkscape:groupmode="layer"
     inkscape:label="Calque 1">
    <g
       transform="matrix(0.35277777,0,0,-0.35277777,4.2764435,190.93165)"
       id="g1785">
      <path
         d="m 93.2198,372.6723 h -0.673 c -0.335,0.002 -0.631,0.182 -0.784,0.469 -0.07,0.132 -0.106,0.274 -0.106,0.421 l -0.002,0.509 c -0.002,0.18 -0.096,0.346 -0.248,0.433 -0.041,0.019 -0.213,0.064 -0.263,0.068 -0.172,0 -0.333,-0.094 -0.427,-0.249 l -0.254,-0.441 c -0.076,-0.132 -0.179,-0.236 -0.305,-0.314 -0.258,-0.158 -0.577,-0.173 -0.845,-0.048 h -0.008 l -0.762,0.461 c -0.208,0.176 -0.323,0.432 -0.315,0.701 0.002,0.146 0.043,0.292 0.117,0.421 l 0.256,0.444 c 0.09,0.153 0.09,0.347 0,0.501 -0.022,0.03 -0.154,0.159 -0.194,0.189 -0.146,0.082 -0.339,0.084 -0.493,-0.004 l -0.441,-0.257 c -0.13,-0.072 -0.27,-0.112 -0.419,-0.118 h -0.018 c -0.27,0 -0.521,0.118 -0.689,0.315 h -0.018 l -0.421,0.733 c -0.146,0.277 -0.134,0.613 0.03,0.882 0.072,0.122 0.178,0.226 0.313,0.306 l 0.443,0.257 c 0.152,0.088 0.248,0.254 0.248,0.431 -0.004,0.042 -0.048,0.212 -0.07,0.256 -0.088,0.152 -0.249,0.247 -0.433,0.249 h -0.509 c -0.148,0 -0.294,0.038 -0.421,0.108 -0.284,0.15 -0.463,0.445 -0.469,0.769 v 0.674 c 0.006,0.338 0.185,0.633 0.471,0.785 0.121,0.07 0.269,0.108 0.419,0.108 h 0.513 c 0.18,0.002 0.341,0.096 0.431,0.251 0.02,0.04 0.064,0.21 0.068,0.26 0,0.169 -0.096,0.335 -0.25,0.427 l -0.441,0.253 c -0.131,0.076 -0.239,0.182 -0.315,0.308 -0.166,0.275 -0.172,0.619 -0.018,0.898 l 0.032,0.058 0.311,0.539 c 0.004,0.006 0.008,0.01 0.01,0.016 l 0.002,0.002 c 0.162,0.258 0.447,0.415 0.753,0.415 0.146,-0.014 0.311,-0.04 0.447,-0.118 l 0.443,-0.255 c 0.154,-0.088 0.347,-0.088 0.497,0 0.036,0.026 0.166,0.156 0.196,0.198 0.082,0.143 0.082,0.329 -0.008,0.489 l -0.256,0.441 c -0.074,0.134 -0.115,0.279 -0.117,0.423 -0.008,0.297 0.133,0.577 0.373,0.749 l 0.004,0.008 0.67,0.385 c 0.272,0.142 0.609,0.131 0.881,-0.028 0.13,-0.082 0.231,-0.188 0.307,-0.316 l 0.256,-0.443 c 0.092,-0.153 0.253,-0.247 0.433,-0.247 0.04,0.004 0.217,0.052 0.261,0.072 0.144,0.083 0.24,0.251 0.242,0.429 v 0.511 c 0,0.144 0.038,0.289 0.108,0.421 0.153,0.285 0.449,0.463 0.77,0.469 h 0.675 c 0.333,-0.006 0.627,-0.184 0.783,-0.465 0.071,-0.13 0.109,-0.275 0.109,-0.425 v -0.513 c 0.002,-0.178 0.098,-0.344 0.25,-0.431 0.036,-0.016 0.213,-0.064 0.261,-0.068 0.17,0 0.336,0.096 0.428,0.249 l 0.253,0.441 c 0.076,0.128 0.178,0.234 0.303,0.312 0.278,0.168 0.609,0.174 0.885,0.032 l 0.056,-0.032 0.571,-0.33 c 0.269,-0.165 0.429,-0.465 0.421,-0.78 -0.002,-0.144 -0.044,-0.289 -0.116,-0.421 l -0.257,-0.445 c -0.09,-0.154 -0.09,-0.346 0,-0.499 0.023,-0.032 0.151,-0.16 0.191,-0.188 0.148,-0.088 0.338,-0.086 0.493,0.002 l 0.443,0.255 c 0.13,0.078 0.276,0.118 0.447,0.118 0.306,0 0.591,-0.157 0.753,-0.415 l 0.002,-0.004 c 0.004,-0.004 0.006,-0.01 0.01,-0.014 l 0.347,-0.607 c 0.15,-0.269 0.144,-0.613 -0.022,-0.888 -0.083,-0.134 -0.189,-0.234 -0.317,-0.308 l -0.441,-0.255 c -0.154,-0.09 -0.248,-0.252 -0.248,-0.433 0.004,-0.04 0.05,-0.214 0.072,-0.258 0.084,-0.147 0.252,-0.243 0.429,-0.245 h 0.511 c 0.152,0 0.294,-0.038 0.426,-0.11 0.281,-0.152 0.459,-0.447 0.465,-0.769 v -0.674 c -0.006,-0.336 -0.184,-0.631 -0.467,-0.785 -0.134,-0.07 -0.276,-0.106 -0.424,-0.106 h -0.513 c -0.179,-0.002 -0.341,-0.097 -0.431,-0.253 -0.018,-0.038 -0.064,-0.212 -0.068,-0.26 0,-0.169 0.094,-0.335 0.248,-0.423 l 0.443,-0.257 c 0.128,-0.072 0.234,-0.176 0.313,-0.306 0.17,-0.277 0.176,-0.623 0.02,-0.902 l -0.343,-0.595 c -0.004,-0.004 -0.006,-0.01 -0.01,-0.014 l -0.002,-0.004 c -0.162,-0.257 -0.451,-0.415 -0.758,-0.415 h -0.016 c -0.156,0.006 -0.302,0.046 -0.426,0.118 l -0.443,0.257 c -0.153,0.088 -0.345,0.09 -0.499,-0.002 -0.034,-0.024 -0.162,-0.152 -0.191,-0.191 -0.084,-0.146 -0.084,-0.34 0.006,-0.493 l 0.255,-0.444 c 0.074,-0.129 0.116,-0.275 0.118,-0.421 0.008,-0.311 -0.146,-0.603 -0.405,-0.77 l -0.04,-0.026 -0.641,-0.366 c -0.268,-0.125 -0.587,-0.107 -0.843,0.046 -0.125,0.08 -0.231,0.188 -0.305,0.312 l -0.257,0.447 c -0.09,0.153 -0.252,0.247 -0.434,0.247 -0.042,-0.004 -0.211,-0.048 -0.255,-0.069 -0.15,-0.086 -0.246,-0.252 -0.248,-0.432 v -0.509 c 0,-0.152 -0.038,-0.293 -0.109,-0.425 -0.152,-0.283 -0.448,-0.463 -0.771,-0.465"
         style="opacity:1;fill:#80a13d;fill-opacity:1;fill-rule:nonzero;stroke:none;stop-opacity:1"
         id="path1035"
         inkscape:connector-curvature="0" />
      <path
         d="m 92.8775,376.8304 c -2.028,0 -3.679,1.651 -3.679,3.679 0,2.028 1.651,3.679 3.679,3.679 2.028,0 3.679,-1.651 3.679,-3.679 0,-2.028 -1.651,-3.679 -3.679,-3.679 m 0,6.643 c -1.635,0 -2.964,-1.329 -2.964,-2.964 0,-1.635 1.329,-2.964 2.964,-2.964 1.635,0 2.964,1.329 2.964,2.964 0,1.635 -1.329,2.964 -2.964,2.964"
         style="opacity:1;fill:#ffffff;fill-opacity:1;fill-rule:nonzero;stroke:none;stop-opacity:1"
         id="path1039"
         inkscape:connector-curvature="0" />
    </g>
  </g>
</svg>
