<svg version="1.1" id="Calque_1" xmlns="http://www.w3.org/2000/svg" x="0" y="0" viewBox="0 0 66 52" xml:space="preserve"><style>.st2,.st3{fill:none;stroke:#02697a;stroke-width:1.5;stroke-miterlimit:10}.st3{stroke-linecap:round;stroke-linejoin:round}</style><switch><g><g fill="none" stroke="#7fa03e" stroke-width="1.5" stroke-miterlimit="10"><circle cx="33.6" cy="32.3" r="5.6"/><path d="M23.2 47.1c1.4-4.4 5.6-7.5 10.4-7.5 4.9 0 9 3.2 10.4 7.5" stroke-linecap="round" stroke-linejoin="round"/></g><circle class="st2" cx="51.6" cy="25.2" r="5.6"/><path class="st3" d="M41.2 40c1.4-4.4 5.6-7.5 10.4-7.5 4.9 0 9 3.2 10.4 7.5"/><circle class="st2" cx="15.5" cy="25.2" r="5.6"/><path class="st3" d="M5.1 40c1.4-4.4 5.6-7.5 10.4-7.5 4.9 0 9 3.2 10.4 7.5"/><g><circle class="st2" cx="33.6" cy="10.9" r="5.6"/><path class="st3" d="M23.2 25.7c1.4-4.4 5.6-7.5 10.4-7.5 4.9 0 9 3.2 10.4 7.5"/></g></g></switch></svg>