<svg xmlns="http://www.w3.org/2000/svg" width="50" height="50">
  <title>symbols defs</title>
  <defs>
    <symbol id="dechets" viewBox="0 0 13 13">
        <path d="M9.55 11.77H3.548L2.84 1.764h7.42zM2.04 1.764h9.018" fill="none" stroke-width=".5757" stroke-linecap="round" stroke-linejoin="round" stroke-miterlimit="10"/>
        <path d="M4.93 4.443v4.648m1.62-4.648v4.648m1.618-4.648v4.648" fill="none" stroke="#80a13d" stroke-width=".5757" stroke-miterlimit="10"/>
    </symbol>
    <symbol id="eau">
      <path
        d="M40.614 31.463c0 8.562-6.991 15.553-15.553 15.553-8.561 0-15.696-6.991-15.696-15.553 0-7.134 10.56-22.402 14.27-27.682.713-.856 1.997-.856 2.568 0 3.852 5.28 14.411 20.548 14.411 27.682z"
        fill="none" stroke-width="2.14" stroke-miterlimit="10" />
      <path d="M34.476 33.347c-1.712 4.852-5.565 8.561-10.559 9.988" stroke="#7fa03e" stroke-linecap="round"
        stroke-linejoin="round" fill="none" stroke-width="2.14" stroke-miterlimit="10" />
    </symbol>
    <symbol id="gaz">
      <path stroke-miterlimit="10" stroke-linejoin="round" stroke-linecap="round" stroke-width="2"
        fill="none"
        d="M42.502 25.068c.622-1.14.933-2.385.933-3.733 0-4.355-3.525-7.777-7.777-7.777-1.037 0-1.97.208-2.8.519-1.348-2.593-4.148-4.46-7.362-4.46-4.355 0-7.881 3.319-8.296 7.467h-.207A10.444 10.444 0 006.519 27.557 10.444 10.444 0 0016.993 38.03c1.866 0 3.525-.518 5.08-1.244.312.933.83 1.763 1.556 2.489a6.572 6.572 0 009.333 0c.622-.622 1.037-1.348 1.452-2.074 1.348 1.348 3.214 2.281 5.288 2.281a7.435 7.435 0 007.466-7.466c0-3.214-1.866-5.91-4.666-6.948z" />
      <path
        d="M15.23 22.476c-.415.622-.622 1.452-.726 2.281-.104 2.593 1.866 4.874 4.459 4.978.622 0 1.14 0 1.763-.208.726 1.66 2.385 2.8 4.355 2.904 2.592.104 4.874-1.763 5.289-4.252h.103M9.112 12.003c-.726-.104-1.348.31-1.66.933l-.31-.311c-1.141-.933-2.904-.83-3.837.311-.934 1.14-.726 2.8.415 3.733 1.14.933 2.8.83 3.733-.311.414-.415.518-.933.622-1.452.207.104.31.208.518.208.83.103 1.66-.415 1.763-1.245.104-.83-.415-1.659-1.244-1.866z"
        fill="none" stroke="#7fa03e" stroke-width="1.5" stroke-linecap="round" stroke-linejoin="round"
        stroke-miterlimit="10" />
    </symbol>
    <symbol id="ressources">
      <switch transform="matrix(1.1203 0 0 1.1203 .65 1.087)" id="switch3410">
        <g id="g3408">
          <path id="path3400"
            d="M37.6 30.6c-4.5.4-6 1.5-6.7 4.6H12.7c-.9-3.1-2.5-4.2-6.8-4.6-.6-5-1.3-10-2-15.2h35.8c-.7 5.2-1.4 10.2-2.1 15.2zM3.7 15.2c-3.3-1.1-.4-4.8 1-6.5C6.8 6.1 7 6 10.2 7.3c1.5.6 1.7 2.1 1.9 3.4.2 1.3 1 2.6 1 4.1"
            fill="none" stroke-width="1.5" />
          <path id="path3404"
            d="M39.6 15.3c1.4-.1 1.9-.4 2.1-1.5.2-.8-.4-1.6-.9-2.2-1.1-1.5-2.5-2.9-4.4-3.3-2.3-.4-4.2-1.1-6.1-2.6-.7-.5-1.3-1.4-2.1-.7-.7.5-1.1 1.6-1.7 2.2-1 .9-2.1 2-1.5 3.5.6 1.7 2.4 2.8 3.2 4.3M11.5 8.5c-.7-1.8 2.2-6.5 7.1-6.9 1.9-.2 2 2.3 3.3 3.7.6.7 3.1 2.4 3 4.2"
           fill="none" stroke-width="1.5" />
          <path id="path3402" stroke-miterlimit="10" stroke-linejoin="round" stroke-linecap="round" stroke-width="1.332"
            stroke="#80a13d" fill="none" d="M10.7 21.2h22.2m-20.2 4.1h18.1m-15.5 3.9h13" />
          <path id="path3406"
            d="M6.5 32.4c-2.6 0-4.8 2.1-4.8 4.8 0 2.7 2.1 4.8 4.8 4.8 2.6 0 4.8-2.1 4.8-4.8 0-2.7-2.1-4.8-4.8-4.8m0 1.5c1.8 0 3.3 1.5 3.3 3.3 0 1.8-1.5 3.3-3.3 3.3-1.8 0-3.3-1.5-3.3-3.3 0-1.9 1.5-3.3 3.3-3.3m30.6-1.5c-2.6 0-4.8 2.1-4.8 4.8 0 2.7 2.1 4.8 4.8 4.8 2.6 0 4.8-2.1 4.8-4.8 0-2.7-2.2-4.8-4.8-4.8m0 1.5c1.8 0 3.3 1.5 3.3 3.3 0 1.8-1.5 3.3-3.3 3.3-1.8 0-3.3-1.5-3.3-3.3 0-1.9 1.5-3.3 3.3-3.3"
            fill="none" stroke-width="1.5"/>
        </g>
      </switch>
    </symbol>
    <symbol id="social">
      <switch transform="translate(-1.594 3.76) scale(.78767)" id="switch4073">
        <g id="g4071">
          <g stroke-miterlimit="10" stroke-width="2" stroke="#7fa03e" fill="none">
            <circle fill="none" id="circle4051" r="5.6" cy="32.3" cx="33.6" />
            <path fill="none" id="path4053" stroke-linejoin="round" stroke-linecap="round"
              d="M23.2 47.1c1.4-4.4 5.6-7.5 10.4-7.5 4.9 0 9 3.2 10.4 7.5" />
          </g>
          <g stroke-miterlimit="10" stroke-width="2" fill="none">
            <circle fill="none" id="circle4057" r="5.6" cy="25.2" cx="51.6" class="st2" />
            <path fill="none" id="path4059" d="M41.2 40c1.4-4.4 5.6-7.5 10.4-7.5 4.9 0 9 3.2 10.4 7.5" />
            <circle fill="none" id="circle4061" r="5.6" cy="25.2" cx="15.5" class="st2" />
            <path fill="none" id="path4063" d="M5.1 40c1.4-4.4 5.6-7.5 10.4-7.5 4.9 0 9 3.2 10.4 7.5" />
            <circle fill="none" id="circle4065" r="5.6" cy="10.9" cx="33.6" class="st2" />
            <path fill="none" id="path4067" d="M23.2 25.7c1.4-4.4 5.6-7.5 10.4-7.5 4.9 0 9 3.2 10.4 7.5" />
          </g>
        </g>
      </switch>
    </symbol>
  </defs>
</svg>
