<svg xmlns="http://www.w3.org/2000/svg" height="50" width="50"><switch transform="matrix(.7154 0 0 .7154 .783 11.465)"><g fill="none" stroke-width="1.5" stroke-linecap="round" stroke-linejoin="round" stroke-miterlimit="10"><path d="M63.5 25.9h-9.1v-8h9.1c.9 0 1.6-.7 1.6-1.6 0-.9-.7-1.6-1.6-1.6h-9.1V12c0-1.1-.9-2-2-2H41.5c-6.5 0-11.8 5.3-11.8 11.8 0 6.5 5.3 12 11.8 12h10.9c1.1 0 2-.9 2-2v-2.7h9.1c.9 0 1.6-.7 1.6-1.6 0-.9-.8-1.6-1.6-1.6zm-34.6-3.3c-2.4 0-6 1-9.4-2.5-2.5-2.6-2.1-6-2.2-8-.5-6-4.3-7.5-7.8-7.4-3.6.1-7 2.7-7.2 7.2" stroke="#036a7b"/><path stroke="#7fa03e" d="M43.6 14.5c-1.8 1.9-3.3 4.6-4.9 6.8 2 .9 5.3-1.4 7.4-1.7-1.8 2.3-4.6 5.9-5.5 8.5"/></g></switch></svg>