<?xml version="1.0" encoding="UTF-8" standalone="no"?>
<svg
   xmlns:dc="http://purl.org/dc/elements/1.1/"
   xmlns:cc="http://creativecommons.org/ns#"
   xmlns:rdf="http://www.w3.org/1999/02/22-rdf-syntax-ns#"
   xmlns:svg="http://www.w3.org/2000/svg"
   xmlns="http://www.w3.org/2000/svg"
   xmlns:sodipodi="http://sodipodi.sourceforge.net/DTD/sodipodi-0.dtd"
   xmlns:inkscape="http://www.inkscape.org/namespaces/inkscape"
   sodipodi:docname="picto-money.svg"
   inkscape:version="1.0beta1 (fe3e306, 2019-09-17)"
   id="svg2503"
   version="1.1"
   viewBox="0 0 5.4998055 5.5001583"
   height="5.5001583mm"
   width="5.4998055mm">
  <defs
     id="defs2497">
    <clipPath
       clipPathUnits="userSpaceOnUse"
       id="clipPath1211">
      <path
         d="M 0,0 H 595.276 V 841.89 H 0 Z"
         id="path1209"
         inkscape:connector-curvature="0" />
    </clipPath>
  </defs>
  <sodipodi:namedview
     inkscape:window-maximized="0"
     inkscape:window-y="23"
     inkscape:window-x="0"
     inkscape:window-height="755"
     inkscape:window-width="1280"
     fit-margin-bottom="0"
     fit-margin-right="0"
     fit-margin-left="0"
     fit-margin-top="0"
     showgrid="false"
     inkscape:document-rotation="0"
     inkscape:current-layer="layer1"
     inkscape:document-units="mm"
     inkscape:cy="-41.034572"
     inkscape:cx="84.679048"
     inkscape:zoom="0.35"
     inkscape:pageshadow="2"
     inkscape:pageopacity="0.0"
     borderopacity="1.0"
     bordercolor="#666666"
     pagecolor="#ffffff"
     id="base" />
  <metadata
     id="metadata2500">
    <rdf:RDF>
      <cc:Work
         rdf:about="">
        <dc:format>image/svg+xml</dc:format>
        <dc:type
           rdf:resource="http://purl.org/dc/dcmitype/StillImage" />
        <dc:title></dc:title>
      </cc:Work>
    </rdf:RDF>
  </metadata>
  <g
     transform="translate(-83.428668,-159.02373)"
     id="layer1"
     inkscape:groupmode="layer"
     inkscape:label="Calque 1">
    <g
       transform="matrix(0.35277777,0,0,-0.35277777,53.428588,315.14204)"
       id="g1205">
      <g
         id="g1207"
         clip-path="url(#clipPath1211)">
        <g
           id="g1213"
           transform="translate(92.8346,427.4671)">
          <path
             d="m 0,0 c 4.019,0 7.277,3.258 7.277,7.277 0,4.02 -3.258,7.278 -7.277,7.278 -4.019,0 -7.277,-3.258 -7.277,-7.278 C -7.277,3.258 -4.019,0 0,0 Z"
             style="fill:none;stroke:#7fa03d;stroke-width:1.036;stroke-linecap:round;stroke-linejoin:round;stroke-miterlimit:10;stroke-dasharray:none;stroke-opacity:1"
             id="path1215"
             inkscape:connector-curvature="0" />
        </g>
        <g
           id="g1217"
           transform="translate(95.7397,432.5976)">
          <path
             d="m 0,0 c -0.077,0 -0.149,-0.014 -0.214,-0.04 -0.066,-0.028 -0.149,-0.076 -0.249,-0.145 -0.332,-0.224 -0.615,-0.388 -0.851,-0.492 -0.235,-0.104 -0.472,-0.156 -0.711,-0.156 -0.433,0 -0.778,0.133 -1.036,0.399 -0.259,0.266 -0.438,0.681 -0.538,1.244 h 1.481 c 0.139,0 0.253,0.044 0.341,0.133 0.089,0.089 0.134,0.199 0.134,0.33 0,0.131 -0.045,0.239 -0.134,0.324 -0.088,0.085 -0.202,0.127 -0.341,0.127 H -3.692 C -3.7,1.817 -3.704,1.96 -3.704,2.153 c 0,0.192 0.004,0.335 0.012,0.428 h 1.574 c 0.139,0 0.253,0.042 0.341,0.127 0.089,0.085 0.134,0.193 0.134,0.324 0,0.131 -0.045,0.241 -0.134,0.33 -0.088,0.089 -0.202,0.133 -0.341,0.133 h -1.481 c 0.1,0.556 0.279,0.967 0.538,1.233 0.258,0.266 0.603,0.399 1.036,0.399 0.254,0 0.503,-0.05 0.746,-0.15 0.243,-0.101 0.515,-0.266 0.816,-0.498 0.1,-0.069 0.183,-0.118 0.249,-0.145 0.065,-0.027 0.137,-0.04 0.214,-0.04 0.139,0 0.255,0.06 0.347,0.179 0.093,0.12 0.139,0.264 0.139,0.434 0,0.124 -0.021,0.226 -0.064,0.307 C 0.38,5.295 0.312,5.374 0.22,5.451 -0.12,5.737 -0.49,5.955 -0.891,6.105 -1.292,6.256 -1.69,6.331 -2.083,6.331 -2.863,6.331 -3.511,6.084 -4.028,5.59 -4.545,5.096 -4.892,4.398 -5.069,3.495 h -0.753 c -0.131,0 -0.243,-0.044 -0.335,-0.133 -0.093,-0.089 -0.139,-0.199 -0.139,-0.33 0,-0.123 0.046,-0.229 0.139,-0.318 0.092,-0.089 0.204,-0.133 0.335,-0.133 h 0.649 C -5.181,2.488 -5.185,2.345 -5.185,2.153 c 0,-0.193 0.004,-0.336 0.012,-0.429 h -0.649 c -0.131,0 -0.243,-0.042 -0.335,-0.127 -0.093,-0.085 -0.139,-0.193 -0.139,-0.324 0,-0.131 0.046,-0.241 0.139,-0.33 0.092,-0.089 0.204,-0.133 0.335,-0.133 h 0.753 c 0.177,-0.91 0.522,-1.613 1.036,-2.106 0.513,-0.494 1.163,-0.741 1.95,-0.741 0.401,0 0.798,0.075 1.192,0.226 0.393,0.15 0.764,0.368 1.111,0.654 0.177,0.139 0.266,0.32 0.266,0.544 0,0.169 -0.046,0.314 -0.139,0.434 C 0.255,-0.06 0.139,0 0,0"
             style="fill:#7fa03d;fill-opacity:1;fill-rule:nonzero;stroke:none"
             id="path1219"
             inkscape:connector-curvature="0" />
        </g>
      </g>
    </g>
  </g>
</svg>
