<svg xmlns="http://www.w3.org/2000/svg" height="50" width="50"><path stroke-miterlimit="10" stroke-linejoin="round" stroke-linecap="round" stroke-width="2" stroke="#02697a" fill="none" d="M42.502 25.068c.622-1.14.933-2.385.933-3.733 0-4.355-3.525-7.777-7.777-7.777-1.037 0-1.97.208-2.8.519-1.348-2.593-4.148-4.46-7.362-4.46-4.355 0-7.881 3.319-8.296 7.467h-.207A10.444 10.444 0 006.519 27.557 10.444 10.444 0 0016.993 38.03c1.866 0 3.525-.518 5.08-1.244.312.933.83 1.763 1.556 2.489a6.572 6.572 0 009.333 0c.622-.622 1.037-1.348 1.452-2.074 1.348 1.348 3.214 2.281 5.288 2.281a7.435 7.435 0 007.466-7.466c0-3.214-1.866-5.91-4.666-6.948z"/><path d="M15.23 22.476c-.415.622-.622 1.452-.726 2.281-.104 2.593 1.866 4.874 4.459 4.978.622 0 1.14 0 1.763-.208.726 1.66 2.385 2.8 4.355 2.904 2.592.104 4.874-1.763 5.289-4.252h.103M9.112 12.003c-.726-.104-1.348.31-1.66.933l-.31-.311c-1.141-.933-2.904-.83-3.837.311-.934 1.14-.726 2.8.415 3.733 1.14.933 2.8.83 3.733-.311.414-.415.518-.933.622-1.452.207.104.31.208.518.208.83.103 1.66-.415 1.763-1.245.104-.83-.415-1.659-1.244-1.866z" fill="none" stroke="#7fa03e" stroke-width="1.5" stroke-linecap="round" stroke-linejoin="round" stroke-miterlimit="10"/></svg>