<?xml version="1.0" encoding="UTF-8" standalone="no"?>
<svg
   xmlns:dc="http://purl.org/dc/elements/1.1/"
   xmlns:cc="http://creativecommons.org/ns#"
   xmlns:rdf="http://www.w3.org/1999/02/22-rdf-syntax-ns#"
   xmlns:svg="http://www.w3.org/2000/svg"
   xmlns="http://www.w3.org/2000/svg"
   xmlns:sodipodi="http://sodipodi.sourceforge.net/DTD/sodipodi-0.dtd"
   xmlns:inkscape="http://www.inkscape.org/namespaces/inkscape"
   sodipodi:docname="picto-earth.svg"
   inkscape:version="1.0beta1 (fe3e306, 2019-09-17)"
   id="svg1873"
   version="1.1"
   viewBox="0 0 5.5001583 5.4998055"
   height="5.4998055mm"
   width="5.5001583mm">
  <defs
     id="defs1867">
    <clipPath
       clipPathUnits="userSpaceOnUse"
       id="clipPath1195">
      <path
         d="M 0,0 H 595.276 V 841.89 H 0 Z"
         id="path1193"
         inkscape:connector-curvature="0" />
    </clipPath>
  </defs>
  <sodipodi:namedview
     inkscape:window-maximized="0"
     inkscape:window-y="23"
     inkscape:window-x="0"
     inkscape:window-height="755"
     inkscape:window-width="1280"
     fit-margin-bottom="0"
     fit-margin-right="0"
     fit-margin-left="0"
     fit-margin-top="0"
     showgrid="false"
     inkscape:document-rotation="0"
     inkscape:current-layer="layer1"
     inkscape:document-units="mm"
     inkscape:cy="318.96475"
     inkscape:cx="310.394"
     inkscape:zoom="0.35"
     inkscape:pageshadow="2"
     inkscape:pageopacity="0.0"
     borderopacity="1.0"
     bordercolor="#666666"
     pagecolor="#ffffff"
     id="base" />
  <metadata
     id="metadata1870">
    <rdf:RDF>
      <cc:Work
         rdf:about="">
        <dc:format>image/svg+xml</dc:format>
        <dc:type
           rdf:resource="http://purl.org/dc/dcmitype/StillImage" />
        <dc:title></dc:title>
      </cc:Work>
    </rdf:RDF>
  </metadata>
  <g
     transform="translate(-23.708254,-63.773909)"
     id="layer1"
     inkscape:groupmode="layer"
     inkscape:label="Calque 1">
    <g
       transform="matrix(0.35277777,0,0,-0.35277777,-6.2915793,227.35114)"
       id="g1189">
      <g
         id="g1191"
         clip-path="url(#clipPath1195)">
        <g
           id="g1197"
           transform="translate(88.0551,461.3824)">
          <path
             d="M 0,0 C 0.022,0.019 0.043,0.038 0.065,0.057 0.043,0.038 0.022,0.019 0,0 Z m 7.971,-2.358 c -0.009,0.162 -0.205,0.224 -0.34,0.295 0.007,0.149 0.046,0.031 0.037,0.175 C 7.621,-1.886 7.594,-1.878 7.549,-1.897 7.444,-1.943 7.503,-1.957 7.503,-1.974 7.507,-2.054 7.608,-1.957 7.5,-2.056 7.47,-2.082 7.421,-2.082 7.384,-2.086 7.311,-1.985 7.316,-1.935 7.176,-1.931 7.12,-1.991 7.055,-2.08 7.025,-2.172 6.978,-2.31 7.011,-2.215 7.015,-2.364 c -0.002,-0.006 0,-0.013 0,-0.019 -0.002,-0.089 -0.023,0.017 -0.009,-0.065 0.11,0.022 0.026,0.02 0.108,0.047 0.076,0.026 0.312,0.097 0.38,0.08 0.16,-0.037 0.296,-0.165 0.477,-0.037 z M 8.55,-2.677 C 8.664,-2.76 8.748,-2.81 8.897,-2.769 8.918,-2.586 8.86,-2.595 8.804,-2.47 c 0.009,0.015 0.035,0.033 0.04,0.037 0.042,0.056 0.02,-0.022 0.042,0.073 -0.11,0.035 -0.287,0.147 -0.301,0.295 0.053,0.043 0.037,0.017 0.077,0.043 0.086,0.056 0.021,-0.03 0.072,0.065 C 8.69,-1.871 8.641,-1.856 8.533,-1.899 8.487,-1.918 8.363,-2.005 8.338,-2.026 8.354,-2.254 8.489,-2.341 8.585,-2.446 8.573,-2.554 8.547,-2.526 8.55,-2.677 Z m 3.402,-1.555 c -0.021,0.034 -0.044,0.078 -0.066,0.143 -0.142,-0.047 -0.147,-0.051 -0.314,-0.079 l -0.008,-0.01 c -0.067,-0.095 0.003,-0.055 -0.114,-0.154 -0.14,-0.117 -0.231,-0.278 -0.387,-0.373 -0.019,-0.167 0.014,-0.204 -0.028,-0.402 -0.016,-0.072 -0.098,-0.268 -0.193,-0.254 -0.031,0.006 -0.159,0.324 -0.189,0.411 -0.052,0.149 -0.11,0.26 -0.147,0.432 -0.021,0.091 -0.035,0.267 -0.057,0.328 -0.1,-0.015 -0.095,-0.078 -0.191,-0.011 -0.068,0.049 -0.037,0.078 -0.074,0.151 -0.08,0.075 -0.161,0.15 -0.243,0.224 -0.063,0.021 -0.305,-0.015 -0.408,-0.003 -0.184,0.016 -0.2,0.005 -0.31,0.153 -0.194,-0.01 -0.177,-0.082 -0.366,0.08 -0.124,0.104 -0.1,0.272 -0.28,0.178 C 8.57,-3.572 8.645,-3.605 8.712,-3.676 8.762,-3.731 8.822,-3.768 8.848,-3.84 8.85,-3.843 8.862,-3.911 8.864,-3.921 9.039,-3.932 9.081,-3.848 9.176,-3.777 9.27,-3.865 9.179,-3.88 9.314,-3.949 9.421,-4.003 9.4,-3.971 9.471,-4.059 9.505,-4.177 9.23,-4.496 9.139,-4.554 9.069,-4.599 9.032,-4.572 8.969,-4.625 8.876,-4.703 8.981,-4.692 8.818,-4.752 8.643,-4.815 8.47,-4.95 8.286,-4.961 8.246,-4.853 8.207,-4.742 8.167,-4.632 8.05,-4.257 8.055,-4.402 7.936,-4.208 7.88,-4.125 7.903,-4.07 7.866,-3.995 7.841,-3.939 7.801,-3.915 7.766,-3.846 7.712,-3.74 7.65,-3.574 7.526,-3.591 7.5,-3.674 7.64,-3.958 7.675,-4.027 7.71,-4.097 7.766,-4.126 7.783,-4.225 7.806,-4.362 7.778,-4.345 7.852,-4.436 8.009,-4.625 7.846,-4.591 8.088,-4.776 8.27,-4.914 8.223,-4.956 8.3,-5.14 8.419,-5.174 8.773,-5.015 8.834,-5.062 8.906,-5.191 8.75,-5.396 8.71,-5.508 8.58,-5.883 8.351,-5.878 8.176,-6.165 8.081,-6.321 8.037,-6.341 7.948,-6.527 7.848,-6.739 8.151,-7.323 7.969,-7.568 7.929,-7.624 7.801,-7.657 7.641,-7.827 7.47,-8.012 7.645,-7.98 7.579,-8.289 7.528,-8.359 7.466,-8.363 7.402,-8.414 7.379,-8.486 7.398,-8.544 7.358,-8.634 7.316,-8.742 7.309,-8.684 7.248,-8.772 7.204,-8.841 7.209,-8.869 7.158,-8.933 7.113,-8.99 7.09,-9.007 7.048,-9.045 6.845,-9.232 6.409,-9.237 6.372,-9.211 c -0.103,0.088 -0.033,0.11 -0.058,0.233 -0.026,0.109 -0.083,0.2 -0.131,0.283 l -0.005,0.009 c -0.023,0.041 -0.044,0.08 -0.056,0.117 -0.084,0.266 -0.054,0.467 -0.2,0.736 -0.185,0.348 0.102,0.529 0.09,0.725 -0.005,0.052 -0.023,0.084 -0.028,0.125 -0.035,0.216 -0.056,0.411 -0.2,0.58 -0.159,0.186 -0.138,0.12 -0.087,0.424 C 5.763,-5.63 5.614,-5.719 5.404,-5.71 5.301,-5.392 5.1,-5.547 4.9,-5.641 4.774,-5.698 4.727,-5.624 4.585,-5.644 4.268,-5.687 4.517,-5.824 4.093,-5.488 c -0.177,0.141 -0.058,0.07 -0.163,0.245 -0.035,0.064 -0.142,0.148 -0.191,0.211 -0.161,0.202 0.03,0.405 0.002,0.636 -0.049,0.43 -0.119,0.057 0.121,0.576 0.126,0.276 0.318,0.278 0.366,0.401 0.042,0.11 0.014,0.189 0.093,0.29 0.07,0.082 0.171,0.065 0.21,0.194 0.056,0.159 -0.051,0.179 -0.168,0.183 -0.049,0.166 -0.049,0.125 -0.011,0.278 0.021,0.086 0.002,0.127 0.021,0.213 0.046,0.214 0.413,0.002 0.517,0.09 0.049,0.091 0.056,0.181 0,0.268 -0.058,0.088 -0.135,0.077 -0.175,0.161 0.089,0.06 0.024,0.007 0.1,0.024 0.091,0.021 0.079,0.047 0.187,0.067 0.096,0.019 0.157,0.107 0.25,0.167 0.133,0.085 0.069,0.162 0.23,0.189 0.259,0.044 0.091,0.037 0.119,0.278 0.04,0.015 0.077,0.032 0.114,0.048 0.082,-0.106 -0.021,-0.063 0.077,-0.134 0.026,0.015 0.056,0.03 0.084,0.045 -0.014,0.116 -0.068,0.093 -0.103,0.237 -0.128,-0.021 -0.174,-0.129 -0.277,-0.09 -0.1,0.038 -0.105,0.181 -0.1,0.301 0.037,0.089 0.223,0.138 0.296,0.161 0.117,0.039 0.1,0.117 0.208,0.224 0.14,0.14 0.037,-0.002 0.105,0.179 0.154,0.006 0.081,0.011 0.172,0.058 l 0.005,0.002 0.009,0.003 c 0.054,0.025 0.124,0.031 0.194,0.054 0.256,0.086 0.361,0.043 0.548,-0.033 0.144,-0.06 0.58,-0.062 0.613,-0.245 -0.105,-0.11 -0.205,-0.03 -0.357,-0.039 0.028,-0.142 0.04,-0.142 0.168,-0.181 0.021,0.067 -0.009,0.041 0.026,0.084 0.042,-0.009 0.084,-0.017 0.126,-0.024 0.042,0.143 0.091,0.123 0.233,0.14 -0.024,0.099 -0.049,0.071 0.005,0.149 0.147,-0.015 0.028,-0.002 0.1,-0.12 0.103,0.014 0.203,0.128 0.345,0.142 0.088,0.01 0.084,-0.024 0.21,-0.011 0.102,0.011 0.098,0.049 0.2,0.006 0.038,0.069 0,0.067 0.091,0.084 0.14,0.024 0.262,-0.062 0.396,-0.081 -0.1,0.124 -0.195,0.1 -0.071,0.305 C 9.173,0.279 9.188,0.256 9.255,0.138 9.294,0.16 9.31,0.182 9.329,0.193 9.318,0.202 9.308,0.21 9.297,0.219 9.238,0.265 9.18,0.31 9.12,0.355 9.108,0.363 9.097,0.371 9.085,0.38 9.035,0.417 8.985,0.453 8.934,0.488 8.918,0.499 8.902,0.511 8.886,0.522 8.824,0.564 8.762,0.605 8.7,0.645 8.694,0.649 8.688,0.652 8.682,0.656 8.625,0.692 8.566,0.728 8.508,0.763 8.49,0.774 8.471,0.785 8.453,0.795 8.397,0.828 8.341,0.86 8.285,0.891 8.275,0.896 8.265,0.902 8.256,0.907 8.191,0.942 8.126,0.976 8.06,1.01 8.041,1.019 8.022,1.028 8.004,1.038 7.95,1.064 7.898,1.089 7.844,1.114 7.828,1.122 7.811,1.13 7.794,1.137 7.727,1.168 7.66,1.197 7.592,1.225 7.575,1.233 7.557,1.24 7.539,1.247 7.485,1.269 7.431,1.291 7.377,1.311 7.356,1.32 7.335,1.328 7.315,1.335 7.246,1.361 7.176,1.386 7.106,1.409 7.093,1.413 7.079,1.418 7.066,1.422 7.007,1.442 6.948,1.461 6.888,1.479 6.865,1.486 6.842,1.492 6.819,1.499 6.756,1.517 6.694,1.535 6.63,1.552 6.619,1.554 6.609,1.558 6.599,1.56 6.527,1.579 6.454,1.596 6.382,1.612 6.359,1.617 6.335,1.622 6.312,1.627 6.254,1.64 6.197,1.651 6.139,1.662 6.12,1.666 6.1,1.67 6.081,1.673 6.009,1.687 5.935,1.698 5.861,1.709 5.839,1.713 5.816,1.716 5.794,1.719 5.737,1.727 5.68,1.734 5.621,1.741 5.598,1.744 5.575,1.747 5.552,1.749 5.479,1.756 5.405,1.763 5.329,1.768 5.311,1.77 5.292,1.771 5.274,1.772 5.213,1.776 5.151,1.779 5.09,1.782 5.065,1.783 5.04,1.784 5.015,1.785 4.942,1.787 4.87,1.789 4.797,1.789 H 4.78 C 2.99,1.789 1.352,1.143 0.084,0.072 L 0.088,0.065 C 0.097,0.05 0.104,0.05 0.113,0.011 c -0.117,-0.029 -0.117,-0.048 -0.162,-0.054 -0.026,-0.024 -0.054,-0.048 -0.08,-0.072 0.085,-0.029 0.196,-0.01 0.28,-0.007 0.03,0.056 0.049,0.105 0.102,0.125 0.021,0.008 0.047,0.01 0.082,0.008 0.004,-0.028 0.011,-0.056 0.019,-0.084 0,-0.002 0.003,-0.014 0.003,-0.017 0.002,0.002 0.004,-0.012 0.006,-0.017 0.147,0.086 0.023,0.088 0.102,0.243 C 0.342,0.16 0.358,0.145 0.281,0.224 0.356,0.306 0.5,0.334 0.608,0.326 0.601,0.252 0.566,0.254 0.594,0.19 0.678,0.243 0.736,0.382 0.871,0.357 0.897,0.338 0.927,0.321 0.955,0.304 0.885,0.239 0.78,0.235 0.689,0.198 0.649,-0.207 0.817,0.132 0.761,-0.146 0.862,-0.139 0.96,-0.066 0.997,0.009 0.96,0.058 0.906,0.058 0.876,0.116 0.899,0.19 0.949,0.247 1.021,0.281 1.068,0.303 1.126,0.316 1.191,0.316 1.932,0.31 1.58,0.276 1.809,0.172 1.86,0.149 1.951,0.138 1.981,0.093 2.028,0.022 1.984,-0.044 2.058,-0.101 2.123,-0.149 2.133,-0.099 2.219,-0.207 2.201,-0.269 2.156,-0.332 2.065,-0.334 1.939,-0.336 2.014,-0.25 1.879,-0.263 1.881,-0.39 2.007,-0.439 1.89,-0.508 1.788,-0.569 1.853,-0.485 1.776,-0.528 1.774,-0.53 1.767,-0.534 1.764,-0.536 1.76,-0.539 1.755,-0.545 1.752,-0.549 1.739,-0.564 1.727,-0.577 1.715,-0.59 1.529,-0.539 1.564,-0.562 1.452,-0.439 1.41,-0.392 1.403,-0.38 1.328,-0.387 1.282,-0.388 1.221,-0.409 1.176,-0.367 c 0.091,0.113 0.136,0.003 0.269,0.07 0.023,0.011 0.17,0.125 0.193,0.152 C 1.599,-0.056 1.634,-0.13 1.575,-0.073 1.445,0.06 1.407,0.026 1.23,0.026 1.147,-0.069 1.085,-0.187 0.995,-0.239 0.94,-0.271 0.876,-0.278 0.79,-0.241 0.829,-0.402 0.932,-0.278 0.941,-0.473 0.873,-0.459 0.838,-0.425 0.768,-0.45 0.619,-0.506 0.752,-0.5 0.764,-0.53 c 0,-0.002 0.069,-0.009 0,-0.035 -0.077,-0.029 -0.012,0.014 -0.161,0.102 0.021,0.037 0.042,0.076 0.063,0.116 -0.121,-0.037 -0.273,-0.097 -0.415,-0.167 -0.161,-0.08 -0.313,-0.171 -0.403,-0.255 -0.003,-0.14 0.023,-0.047 0.037,-0.213 0.217,-0.013 0.147,-0.078 0.364,-0.14 0.042,-0.011 0.095,-0.022 0.161,-0.034 0,-0.104 -0.094,-0.183 -0.029,-0.291 0.152,-0.106 0.157,0.101 0.194,0.233 0.513,0.107 0.266,0.258 0.398,0.541 0.02,0.042 0.048,0.087 0.089,0.135 0.04,-0.001 0.201,-0.019 0.236,-0.026 0.116,-0.02 0.053,-0.048 0.179,-0.104 -0.002,-0.101 -0.053,-0.232 0.096,-0.208 0.114,0.02 0.088,0.11 0.228,0.133 0.063,-0.148 0.047,-0.211 0.075,-0.389 0.336,-0.13 0.186,-0.236 0.121,-0.481 0.042,-0.021 0.086,-0.04 0.131,-0.059 -0.003,-0.07 -0.005,-0.139 -0.008,-0.209 -0.006,0 -0.359,0.077 -0.382,0.084 0.054,0.153 0.152,0.155 0.214,0.312 C 1.827,-1.507 1.836,-1.546 1.745,-1.574 1.664,-1.599 1.601,-1.582 1.515,-1.593 1.517,-1.6 1.52,-1.612 1.521,-1.634 1.526,-1.683 1.549,-1.636 1.516,-1.688 1.4,-1.634 1.44,-1.507 1.223,-1.625 1.272,-1.647 1.32,-1.668 1.372,-1.688 1.365,-1.832 1.353,-1.724 1.323,-1.819 1.248,-2.064 1.526,-1.912 1.598,-1.9 1.579,-2.028 1.5,-2.028 1.388,-2.064 1.264,-2.101 1.227,-2.151 1.129,-2.174 c 0,0.153 -0.228,0.034 -0.228,0.034 -0.12,-0.049 -0.672,-0.568 -0.676,-0.572 0.026,-0.192 -0.49,-0.552 -0.474,-1.002 -0.061,0.018 -0.119,0.039 -0.175,0.059 -0.044,0.299 0.017,0.2 -0.224,0.269 -0.258,0.075 -0.223,-0.052 -0.33,-0.074 -0.12,-0.027 -0.178,0.108 -0.35,-0.004 -0.096,-0.066 -0.301,-0.467 -0.292,-0.622 0.017,-0.42 0.399,-0.444 0.497,-0.248 0.065,0.13 0.049,0.202 0.261,0.168 0.021,-0.112 -0.012,-0.194 -0.04,-0.28 -0.018,-0.051 -0.07,-0.142 -0.044,-0.211 0.151,-0.062 0.156,0.054 0.356,-0.065 0.015,-0.201 -0.09,-0.425 0.064,-0.54 0.118,-0.087 0.126,-0.009 0.23,0.009 0.117,0.021 0.096,-0.052 0.203,-0.069 0.061,0.075 0.035,0.028 0.075,0.12 0.07,0.158 0.088,0.083 0.254,0.181 0.016,0.009 0.03,0.018 0.047,0.029 0.018,-0.039 0.193,-0.11 0.333,-0.149 0.06,-0.017 0.103,-0.022 0.136,-0.023 0.102,-0.001 0.112,0.048 0.251,-0.001 0.016,-0.008 0.037,-0.013 0.056,-0.019 0.003,0 0.01,-0.004 0.01,-0.007 0.002,-0.002 0.009,-0.008 0.011,-0.01 0.023,-0.026 0.026,-0.052 0.044,-0.08 C 1.22,-5.372 1.316,-5.464 1.409,-5.554 1.593,-5.626 1.593,-5.49 1.803,-5.693 1.892,-5.777 1.852,-5.776 1.901,-5.884 1.908,-5.901 1.922,-5.918 1.931,-5.938 1.95,-5.989 1.971,-6.037 1.992,-6.086 2.088,-6.211 2.218,-6.133 2.351,-6.261 2.428,-6.336 2.37,-6.313 2.54,-6.343 2.803,-6.386 2.701,-6.362 2.902,-6.514 2.978,-6.569 2.997,-6.538 3.069,-6.586 3.169,-6.726 3.144,-6.878 3.06,-7.001 2.801,-7.378 2.89,-7.316 2.878,-7.615 2.869,-7.787 2.82,-8.142 2.659,-8.185 2.074,-8.349 2.414,-8.463 2.26,-8.752 2.216,-8.834 2.183,-8.855 2.155,-8.92 2.039,-9.193 2.12,-9.284 1.775,-9.223 1.808,-9.281 1.787,-9.242 1.82,-9.294 1.922,-9.452 1.939,-9.572 1.729,-9.611 c -0.175,-0.034 -0.1,0 -0.117,-0.194 -0.067,-0.028 -0.098,0 -0.142,-0.045 0.061,-0.112 0.005,-0.019 0.108,-0.082 -0.02,-0.062 -0.033,-0.122 -0.05,-0.181 -0.039,-0.146 -0.051,-0.012 -0.065,-0.181 0.061,-0.029 0.102,-0.023 0.156,-0.096 -0.007,-0.056 -0.063,-0.209 -0.079,-0.297 0.086,-0.129 0.156,-0.267 0.341,-0.28 -0.003,-0.108 0.023,-0.097 -0.07,-0.119 -0.079,-0.019 -0.247,0.056 -0.318,0.093 -0.121,0.065 -0.233,0.151 -0.315,0.274 -0.046,0.07 -0.027,0.036 -0.076,0.101 -0.089,0.114 -0.054,0.167 -0.079,0.243 -0.015,0.045 -0.087,0.093 -0.057,0.239 0.008,0.041 0.073,0.237 -0.006,0.203 -0.08,-0.031 0.06,-0.018 -0.05,-0.07 -0.025,0.07 -0.046,0.175 -0.06,0.263 -0.028,0.147 -0.063,0.153 -0.08,0.243 -0.035,0.207 0.054,0.229 -0.044,0.575 -0.065,0.228 -0.038,0.77 -0.106,1.047 -0.011,0.045 -0.025,0.082 -0.041,0.111 -0.063,0.104 -0.217,0.153 -0.34,0.237 -0.007,0.001 -0.012,0.003 -0.014,0.007 -0.171,0.119 -0.332,0.588 -0.467,0.764 -0.063,0.084 -0.103,0.047 -0.13,0.179 -0.031,0.121 0.016,0.101 0.056,0.202 -0.208,0.381 0.268,0.375 0.17,0.833 -0.021,0.084 -0.082,0.201 -0.133,0.238 -0.098,-0.043 -0.051,-0.067 -0.103,-0.149 -0.079,0.045 -0.158,0.09 -0.235,0.135 -0.24,0.231 -0.112,0.063 -0.179,0.214 -0.145,0.318 -0.283,0.14 -0.455,0.297 -0.077,0.065 -0.091,0.168 -0.219,0.149 -0.194,-0.026 -0.087,-0.056 -0.287,0.038 -0.171,0.08 -0.348,0.174 -0.467,0.282 -0.006,0.227 0.063,0.205 -0.109,0.414 -0.111,-0.505 -0.17,-1.031 -0.17,-1.57 0,-0.083 0.002,-0.166 0.005,-0.249 0,-0.018 0.001,-0.036 0.002,-0.054 0.003,-0.079 0.007,-0.158 0.013,-0.236 0,-0.003 0,-0.006 0,-0.01 0.007,-0.082 0.014,-0.164 0.023,-0.246 0.002,-0.016 0.004,-0.033 0.006,-0.05 0.008,-0.073 0.018,-0.146 0.028,-0.218 0.002,-0.009 0.003,-0.018 0.004,-0.026 0.012,-0.081 0.026,-0.16 0.04,-0.24 l 0.009,-0.044 c 0.013,-0.07 0.028,-0.14 0.043,-0.209 0.003,-0.012 0.005,-0.023 0.007,-0.035 0.018,-0.078 0.037,-0.157 0.058,-0.234 0.003,-0.012 0.006,-0.024 0.009,-0.035 0.019,-0.069 0.038,-0.137 0.059,-0.205 0.003,-0.013 0.007,-0.026 0.011,-0.038 0.023,-0.077 0.048,-0.154 0.074,-0.23 0.002,-0.007 0.005,-0.015 0.007,-0.022 0.025,-0.069 0.05,-0.138 0.076,-0.206 0.004,-0.013 0.009,-0.026 0.014,-0.038 0.029,-0.076 0.06,-0.151 0.091,-0.225 0,-0.001 10e-4,-0.002 10e-4,-0.004 0.031,-0.072 0.063,-0.143 0.096,-0.214 0.006,-0.012 0.011,-0.024 0.017,-0.036 0.069,-0.145 0.141,-0.287 0.219,-0.427 0.006,-0.011 0.012,-0.021 0.018,-0.032 0.078,-0.14 0.162,-0.278 0.249,-0.412 0.006,-0.009 0.012,-0.017 0.018,-0.026 0.089,-0.136 0.182,-0.268 0.28,-0.397 0.005,-0.006 0.01,-0.012 0.015,-0.018 0.048,-0.064 0.097,-0.126 0.147,-0.187 0.001,-0.001 0.002,-0.003 0.003,-0.005 0.053,-0.064 0.107,-0.128 0.162,-0.19 0.003,-0.003 0.006,-0.007 0.009,-0.01 0.053,-0.06 0.106,-0.119 0.16,-0.177 0.003,-0.003 0.006,-0.006 0.009,-0.009 0.113,-0.121 0.232,-0.238 0.354,-0.351 0.003,-0.003 0.007,-0.006 0.01,-0.01 0.122,-0.112 0.248,-0.22 0.377,-0.324 0.004,-0.004 0.008,-0.007 0.012,-0.011 0.129,-0.103 0.262,-0.202 0.399,-0.297 0.004,-0.003 0.008,-0.006 0.013,-0.009 0.136,-0.094 0.277,-0.184 0.42,-0.269 0.004,-0.003 0.008,-0.005 0.012,-0.008 0.144,-0.085 0.291,-0.166 0.442,-0.241 0.003,-0.001 0.006,-0.003 0.009,-0.005 0.979,-0.488 2.084,-0.764 3.253,-0.764 4.022,0 7.282,3.261 7.282,7.283 0,0.431 -0.038,0.853 -0.11,1.262 z M 4.851,-0.851 C 4.87,-0.893 4.889,-0.934 4.91,-0.975 4.938,-1.091 4.847,-0.995 4.938,-1.134 5.01,-1.219 5.08,-1.305 5.15,-1.391 5.105,-1.52 5.108,-1.531 4.982,-1.542 4.893,-1.55 4.793,-1.574 4.726,-1.57 c 0.025,0.166 -0.024,0.08 0.016,0.175 0.044,0.114 0.051,0.028 0.09,0.139 -0.086,0.128 -0.177,0.041 -0.172,0.302 0.082,0.073 0.07,0.061 0.191,0.103 z M 8.683,-7.585 C 8.645,-7.687 8.613,-7.812 8.578,-7.923 8.531,-8.078 8.421,-8.572 8.219,-8.377 c -0.068,0.064 -0.066,0.279 -0.022,0.365 0.124,0.231 0.012,0.177 0.054,0.354 0.033,0.142 0.145,0.107 0.229,0.183 0.076,0.068 0.091,0.187 0.193,0.239 0.1,-0.141 0.047,-0.238 0.01,-0.349 z m 3.259,3.411 c 0.003,-0.019 0.007,-0.038 0.01,-0.058 10e-4,0 10e-4,0 10e-4,-10e-4 -0.003,0.02 -0.007,0.039 -0.011,0.059 z"
             style="fill:none;stroke:#7fa03d;stroke-width:0.55;stroke-linecap:round;stroke-linejoin:round;stroke-miterlimit:10;stroke-dasharray:none;stroke-opacity:1"
             id="path1199"
             inkscape:connector-curvature="0" />
        </g>
        <g
           id="g1201"
           transform="translate(100.0799,455.8885)">
          <path
             d="m 0,0 c 0,-4.001 -3.244,-7.245 -7.245,-7.245 -4.002,0 -7.246,3.244 -7.246,7.245 0,4.001 3.244,7.245 7.246,7.245 C -3.244,7.245 0,4.001 0,0 Z"
             style="fill:none;stroke:#7fa03d;stroke-width:1.1;stroke-linecap:round;stroke-linejoin:round;stroke-miterlimit:10;stroke-dasharray:none;stroke-opacity:1"
             id="path1203"
             inkscape:connector-curvature="0" />
        </g>
      </g>
    </g>
  </g>
</svg>
