<svg version="1.1" id="Calque_1" xmlns="http://www.w3.org/2000/svg" x="0" y="0" viewBox="0 0 28 52" xml:space="preserve"><style>.st0{fill:none;stroke:#02697a;stroke-width:1.5;stroke-linecap:round;stroke-linejoin:round;stroke-miterlimit:10}</style><switch><g><path class="st0" d="M24.2 14.6c-.1-1.3-4.5-2.3-9.9-2.3s-9.8 1-9.9 2.3v27.5h.1c.7 1.1 4.8 2 9.8 2s9.1-.9 9.8-2h.1V14.6z"/><path class="st0" d="M24.3 14.6c0 1.3-4.5 2.3-9.9 2.3s-9.9-1-9.9-2.3M9.3 24.3c-3.1-.4-5.2-1.2-5.2-2M24.5 22.3c0 .8-1.9 1.6-4.8 2M7.7 34.8C5.4 34.4 4 33.7 4 33M24.4 33c0 .8-2 1.6-5 2"/><path d="M13.4 23c-4.2 3.1-6.2 9-3.2 12.1 1.7 1.7 4.8 2 6.8.5 4.2-3.3 1.7-9.1 1.1-9.8-.7-.9-1.4-.1-2.3.2-2.4.8-2.5-3-2.4-3z" fill="none" stroke="#7fa03e" stroke-width="1.5" stroke-linecap="round" stroke-linejoin="round" stroke-miterlimit="10"/><path d="M16.3 34c0 1.3-1.1 2.4-2.4 2.4s-2.4-1.1-2.4-2.4c0-1.1 1.6-3.5 2.2-4.3.1-.1.3-.1.4 0 .6.8 2.2 3.2 2.2 4.3z" fill="none" stroke="#7fa03e" stroke-width="1.5" stroke-miterlimit="10"/></g></switch></svg>