<svg version="1.1" id="Calque_1" xmlns="http://www.w3.org/2000/svg" x="0" y="0" viewBox="0 0 44.8 44.1"
  xml:space="preserve">
  <style>
    .st0 {
      fill: none;
      stroke: #036a7b;
      stroke-width: 1.5;
      stroke-linecap: round;
      stroke-linejoin: round;
      stroke-miterlimit: 10
    }

    .st2 {
      fill: #036a7b
    }

  </style>
  <switch>
    <g>
      <path class="st0"
        d="M37.6 30.6c-4.5.4-6 1.5-6.7 4.6H12.7c-.9-3.1-2.5-4.2-6.8-4.6-.6-5-1.3-10-2-15.2h35.8c-.7 5.2-1.4 10.2-2.1 15.2zM3.7 15.2c-3.3-1.1-.4-4.8 1-6.5C6.8 6.1 7 6 10.2 7.3c1.5.6 1.7 2.1 1.9 3.4.2 1.3 1 2.6 1 4.1" />
      <path d="M10.7 21.2h22.2m-20.2 4.1h18.1m-15.5 3.9h13" fill="none" stroke="#80a13e" stroke-width="1.332"
        stroke-linecap="round" stroke-linejoin="round" stroke-miterlimit="10" />
      <path class="st0"
        d="M39.6 15.3c1.4-.1 1.9-.4 2.1-1.5.2-.8-.4-1.6-.9-2.2-1.1-1.5-2.5-2.9-4.4-3.3-2.3-.4-4.2-1.1-6.1-2.6-.7-.5-1.3-1.4-2.1-.7-.7.5-1.1 1.6-1.7 2.2-1 .9-2.1 2-1.5 3.5.6 1.7 2.4 2.8 3.2 4.3M11.5 8.5c-.7-1.8 2.2-6.5 7.1-6.9 1.9-.2 2 2.3 3.3 3.7.6.7 3.1 2.4 3 4.2" />
      <path class="st2"
        d="M6.5 32.4c-2.6 0-4.8 2.1-4.8 4.8S3.8 42 6.5 42c2.6 0 4.8-2.1 4.8-4.8s-2.1-4.8-4.8-4.8m0 1.5c1.8 0 3.3 1.5 3.3 3.3 0 1.8-1.5 3.3-3.3 3.3-1.8 0-3.3-1.5-3.3-3.3 0-1.9 1.5-3.3 3.3-3.3M37.1 32.4c-2.6 0-4.8 2.1-4.8 4.8s2.1 4.8 4.8 4.8c2.6 0 4.8-2.1 4.8-4.8s-2.2-4.8-4.8-4.8m0 1.5c1.8 0 3.3 1.5 3.3 3.3 0 1.8-1.5 3.3-3.3 3.3-1.8 0-3.3-1.5-3.3-3.3 0-1.9 1.5-3.3 3.3-3.3" />
    </g>
  </switch>
</svg>
