<svg xmlns="http://www.w3.org/2000/svg" width="20.787" height="20.788" viewBox="0 0 5.5 5.5"><defs><clipPath id="a" clipPathUnits="userSpaceOnUse"><path d="M0 0h595.276v841.89H0z"/></clipPath></defs><g clip-path="url(#a)" transform="matrix(.25657 0 0 -.25657 -21.084 114.28)"><path d="M92.835 427.467a7.277 7.277 0 017.277 7.277 7.277 7.277 0 11-7.277-7.277z" fill="none" stroke="#7fa03d" stroke-width="1.036" stroke-linecap="round" stroke-linejoin="round" stroke-miterlimit="10"/><path d="M95.74 432.598a.574.574 0 01-.214-.04 1.489 1.489 0 01-.25-.145 5.71 5.71 0 00-.85-.492 1.743 1.743 0 00-.711-.156c-.433 0-.778.133-1.036.399-.26.266-.438.68-.538 1.244h1.48a.459.459 0 01.476.463.43.43 0 01-.134.324.47.47 0 01-.341.127h-1.574a5.518 5.518 0 00-.012.429c0 .192.004.335.012.428h1.574a.47.47 0 01.34.127.43.43 0 01.135.324.459.459 0 01-.475.463H92.14c.1.556.279.967.538 1.233.258.266.603.399 1.036.399.254 0 .503-.05.746-.15.243-.101.515-.266.816-.498.1-.07.183-.118.249-.145a.555.555 0 01.214-.04c.139 0 .255.06.347.179.093.12.139.264.139.434a.65.65 0 01-.064.307.799.799 0 01-.202.237c-.34.286-.71.504-1.111.654a3.367 3.367 0 01-1.192.226c-.78 0-1.428-.247-1.945-.741-.517-.494-.864-1.192-1.041-2.095h-.753a.464.464 0 01-.335-.133.438.438 0 01-.14-.33c0-.123.047-.23.14-.318a.464.464 0 01.335-.133h.649a5.506 5.506 0 01-.012-.428c0-.193.004-.336.012-.43h-.65a.476.476 0 01-.334-.126.42.42 0 01-.14-.324c0-.131.047-.241.14-.33a.464.464 0 01.335-.133h.753c.177-.91.522-1.613 1.036-2.106.513-.494 1.163-.741 1.95-.741.4 0 .798.075 1.192.226.393.15.764.368 1.11.654a.66.66 0 01.267.544.688.688 0 01-.14.434.423.423 0 01-.346.179" fill="#7fa03d"/></g></svg>